G04 DipTrace 2.4.0.2*
%INTemperatureController.GBL*%
%MOIN*%
%ADD13C,0.0315*%
%ADD14C,0.0118*%
%ADD15C,0.0236*%
%ADD16C,0.0197*%
%ADD17C,0.0591*%
%ADD18C,0.0394*%
%ADD19C,0.0472*%
%ADD20C,0.0157*%
%ADD22C,0.0787*%
%ADD23C,0.025*%
%ADD30R,0.0787X0.0787*%
%ADD31C,0.0787*%
%ADD33C,0.1181*%
%ADD34C,0.1378*%
%ADD35R,0.0669X0.0669*%
%ADD36C,0.0669*%
%ADD37C,0.1575*%
%ADD38C,0.0984*%
%ADD47R,0.0591X0.0591*%
%ADD48C,0.0591*%
%ADD57C,0.04*%
%FSLAX44Y44*%
G04*
G70*
G90*
G75*
G01*
%LNBottom*%
%LPD*%
X12699Y20000D2*
D15*
X13764D1*
X16200Y17563D1*
Y17001D1*
X10574Y27187D2*
D17*
X7324D1*
X7190Y27321D1*
X17199Y25125D2*
D16*
X15824D1*
X14887Y24187D1*
X8449Y19250D2*
D14*
X8533D1*
X8490Y19292D1*
D18*
X7137Y17938D1*
Y16001D1*
X5447Y14312D1*
X19968Y12558D2*
Y12606D1*
X19137Y13437D1*
X17638D1*
X16951D1*
X15260D1*
X19138Y13522D2*
D13*
X19137Y13437D1*
X4887Y21312D2*
D17*
Y22937D1*
Y24562D1*
Y26185D1*
X4885Y26187D1*
Y26625D1*
X5324Y27064D1*
X6512D1*
X6637Y26939D1*
X7077D1*
X7324Y27187D1*
X4887Y21312D2*
Y20439D1*
X4574Y20126D1*
Y14312D1*
X4680D1*
X5447D1*
X4680D2*
D19*
Y8707D1*
X5449Y7937D1*
X7199D1*
X10262Y11000D1*
X16325D1*
X16951Y11625D1*
Y13437D1*
X13544Y27346D2*
X12888Y28002D1*
X11075D1*
X10325Y27252D1*
D17*
X10574Y27187D1*
X14887Y24187D2*
D13*
X13950Y23251D1*
Y21189D1*
X17638Y17501D1*
Y13437D1*
X21824Y19687D2*
Y22125D1*
X22389Y22689D1*
Y24002D1*
X21824Y24566D1*
Y27062D1*
X21262Y22312D2*
D20*
Y21125D1*
X20324Y20187D1*
X21262Y24437D2*
Y25875D1*
X20574Y26562D1*
X17199Y21625D2*
D16*
X15926D1*
X15637D1*
X14824Y22437D1*
X20324Y20187D2*
D14*
X19699D1*
X19512D1*
X18824Y19500D1*
X18762D1*
X18324D1*
X16387D1*
X15824Y20062D1*
Y20439D1*
Y21523D1*
X15926Y21625D1*
X21449Y18937D2*
X20887D1*
Y18750D1*
X20449D1*
X19855Y19343D1*
X19699Y19500D1*
Y20187D1*
X21449Y12062D2*
Y12875D1*
X21387D1*
Y14937D1*
Y16062D1*
Y17249D1*
X20887Y17750D1*
Y18750D1*
X20949Y14937D2*
X21387D1*
X20949Y16062D2*
X21387D1*
X11392Y25062D2*
X12074D1*
X12297Y24839D1*
X13199Y23937D1*
Y21937D1*
X12762Y27187D2*
Y25303D1*
X12297Y24839D1*
X10512Y26562D2*
Y26125D1*
Y25943D1*
X11392Y25062D1*
X7637Y21500D2*
Y21439D1*
Y22812D1*
Y24125D1*
X7575D1*
Y25439D1*
X7387D1*
Y26000D1*
X7826Y26438D1*
X7949Y26562D1*
X9637D1*
X10074Y26125D1*
X10512D1*
X16074Y5812D2*
D13*
Y7000D1*
X16649Y7574D1*
X16755Y7681D1*
X17966Y8891D1*
X18199Y9125D1*
X17262Y5062D2*
Y6625D1*
Y7174D1*
X16755Y7681D1*
X13074Y8562D2*
X15661D1*
X16649Y7574D1*
X17966Y11860D2*
D14*
Y11717D1*
Y8891D1*
Y11717D2*
X20292D1*
X21449Y12875D1*
X8137Y17564D2*
Y15813D1*
X6324Y14001D1*
Y13189D1*
X5447Y12312D1*
X6324Y8750D2*
X5512D1*
Y12247D1*
X5447Y12312D1*
X11698Y18686D2*
Y18253D1*
X13825Y16126D1*
Y15063D1*
X14451Y14437D1*
X15260D1*
X9699Y12937D2*
Y11625D1*
X6824Y8750D1*
X6324D1*
X8137Y17564D2*
X9012Y18439D1*
Y20501D1*
X8075Y21439D1*
X7637D1*
X15888Y20439D2*
X15824D1*
X7949Y26437D2*
X7948Y26438D1*
X7826D1*
X19949Y19437D2*
X19855Y19343D1*
X18699Y19437D2*
X18762Y19500D1*
X18324Y20062D2*
Y19500D1*
X15260Y12437D2*
X14387D1*
X13074Y13750D1*
Y15939D1*
X11012Y18002D1*
X21324Y22937D2*
D13*
X16199D1*
X17262Y32062D2*
D22*
Y31889D1*
X18207Y30944D1*
X21394D1*
X21699Y31250D1*
Y34557D2*
Y35312D1*
X22449Y36062D1*
Y38187D1*
X22193Y38443D1*
X21699Y38937D1*
X15392Y40937D2*
Y41182D1*
X13949Y42625D1*
X10330D1*
X8642Y40937D1*
X15392D2*
X15699D1*
X17512Y39125D1*
X21137D1*
X21512D1*
D17*
X21699Y38937D1*
X22193Y38443D2*
D22*
X21631D1*
X21137Y38937D1*
Y39125D1*
X13883Y38812D2*
Y37062D1*
X17199D1*
X17262Y37000D1*
X8758Y38812D2*
Y37753D1*
X9449Y37062D1*
X10887D1*
X13883D1*
X9574Y32437D2*
X10887Y33750D1*
Y37062D1*
X13824Y32437D2*
X14512D1*
X17449Y35375D1*
Y37000D1*
X17262D1*
Y36826D1*
X18207Y35881D1*
X16699Y26617D2*
D13*
X17523D1*
X19199Y24941D1*
Y24312D1*
X21324Y23812D2*
X16199D1*
X16699Y20079D2*
X16785D1*
X19143Y22437D1*
X12578Y21192D2*
D14*
Y20442D1*
X9137Y17001D1*
Y14376D1*
X7262Y12500D1*
Y10813D1*
X7885Y20187D2*
X6199Y18501D1*
Y17064D1*
X5447Y16312D1*
X8385Y20062D2*
X6449Y18126D1*
Y16314D1*
X5447Y15312D1*
X11825Y21189D2*
Y20314D1*
X8637Y17126D1*
Y14563D1*
X6012Y11938D1*
Y10750D1*
X6449Y10313D1*
Y9313D1*
X12200Y20814D2*
Y20376D1*
X8887Y17063D1*
Y14501D1*
X6699Y12313D1*
Y9750D1*
X6887Y9563D1*
X10137Y19314D2*
Y25124D1*
X9699Y25562D1*
X9762Y19751D2*
Y24374D1*
X9199Y24937D1*
D57*
X12699Y20000D3*
X16200Y17001D3*
X10574Y27187D3*
X7190Y27321D3*
X17199Y25125D3*
X14887Y24187D3*
X8449Y19250D3*
X19968Y12558D3*
X19138Y13522D3*
X13544Y27346D3*
X10574Y27187D3*
X21824Y19687D3*
Y27062D3*
X21262Y22312D3*
X20324Y20187D3*
X21262Y24437D3*
X20574Y26562D3*
X17199Y21625D3*
X14824Y22437D3*
X21449Y18937D3*
Y12062D3*
X20949Y14937D3*
Y16062D3*
X13199Y21937D3*
X11392Y25062D3*
X12762Y27187D3*
X10512Y26562D3*
X11392Y25062D3*
X7637Y21500D3*
Y22812D3*
Y24125D3*
X7575Y25439D3*
X16074Y5812D3*
X18199Y9125D3*
X17262Y5062D3*
Y6625D3*
X17966Y11860D3*
X8137Y17564D3*
X6324Y8750D3*
X11698Y18686D3*
X6324Y8750D3*
X8137Y17564D3*
X11012Y18002D3*
X21324Y22937D3*
X16199D3*
X16699Y26617D3*
X19199Y24312D3*
X21324Y23812D3*
X16199D3*
X16699Y20079D3*
X19143Y22437D3*
X12578Y21192D3*
X7262Y10813D3*
X7885Y20187D3*
X8385Y20062D3*
X11825Y21189D3*
X6449Y9313D3*
X12200Y20814D3*
X6887Y9563D3*
X10137Y19314D3*
X9699Y25562D3*
X9762Y19751D3*
X9199Y24937D3*
X14638Y25064D3*
Y26252D3*
X15950Y26314D3*
X15888Y20439D3*
X8637Y25564D3*
X7949Y26437D3*
X10762Y20314D3*
X11075Y20689D3*
X15824Y27687D3*
X17012D3*
X18199D3*
X19137Y27437D3*
X20012D3*
X20949D3*
X21824Y23375D3*
X20949Y19937D3*
X20574Y19437D3*
X19949D3*
X19324D3*
X18699D3*
X18324Y20062D3*
X17949Y18937D3*
X17699Y18437D3*
X14574Y21812D3*
X6773Y28503D2*
D23*
X13996D1*
X6722Y28255D2*
X10594D1*
X13367D2*
X14246D1*
X6621Y28006D2*
X10344D1*
X13617D2*
X14493D1*
X6449Y27757D2*
X6813D1*
X7566D2*
X10059D1*
X13867D2*
X21164D1*
X14043Y27509D2*
X21516D1*
X11156Y27260D2*
X12895D1*
X14062D2*
X21379D1*
X11132Y27011D2*
X13145D1*
X13941D2*
X16426D1*
X17699D2*
X21336D1*
X10964Y26763D2*
X16231D1*
X18000D2*
X21375D1*
X7464Y26514D2*
X16219D1*
X18250D2*
X21375D1*
X6507Y26265D2*
X16371D1*
X18496D2*
X21375D1*
X6507Y26017D2*
X9578D1*
X9820D2*
X17500D1*
X18746D2*
X21375D1*
X6507Y25768D2*
X9258D1*
X10140D2*
X17750D1*
X18996D2*
X21375D1*
X5472Y25519D2*
X9211D1*
X10226D2*
X16930D1*
X17468D2*
X18000D1*
X19242D2*
X21375D1*
X5472Y25270D2*
X8852D1*
X10453D2*
X15430D1*
X17664D2*
X18246D1*
X19492D2*
X21375D1*
X6511Y25022D2*
X8719D1*
X10488D2*
X15184D1*
X17679D2*
X18496D1*
X19640D2*
X21375D1*
X22273D2*
X22539D1*
X6511Y24773D2*
X8739D1*
X10488D2*
X14934D1*
X17527D2*
X18746D1*
X19648D2*
X21375D1*
X22273D2*
X23114D1*
X6511Y24524D2*
X8961D1*
X10488D2*
X14543D1*
X15761D2*
X18750D1*
X19648D2*
X21379D1*
X22488D2*
X23114D1*
X6511Y24276D2*
X9379D1*
X10488D2*
X14352D1*
X15515D2*
X18711D1*
X19687D2*
X21493D1*
X22734D2*
X23114D1*
X6511Y24027D2*
X9414D1*
X10488D2*
X14106D1*
X15347D2*
X15762D1*
X22836D2*
X23114D1*
X5472Y23778D2*
X9414D1*
X10488D2*
X13856D1*
X15132D2*
X15711D1*
X21812D2*
X21941D1*
X22836D2*
X23114D1*
X6511Y23530D2*
X9414D1*
X10488D2*
X13610D1*
X14851D2*
X15805D1*
X21718D2*
X21942D1*
X22836D2*
X23114D1*
X6511Y23281D2*
X9414D1*
X10488D2*
X13504D1*
X14601D2*
X15860D1*
X21664D2*
X21942D1*
X22836D2*
X23114D1*
X6511Y23032D2*
X9414D1*
X10488D2*
X13504D1*
X14398D2*
X15719D1*
X21804D2*
X21939D1*
X22836D2*
X23114D1*
X6511Y22784D2*
X9414D1*
X10488D2*
X13504D1*
X14398D2*
X15735D1*
X22836D2*
X23114D1*
X6511Y22535D2*
X9414D1*
X10488D2*
X13504D1*
X14398D2*
X15942D1*
X22808D2*
X23114D1*
X5472Y22286D2*
X9414D1*
X10488D2*
X13504D1*
X14398D2*
X18371D1*
X19609D2*
X21411D1*
X5472Y22038D2*
X9414D1*
X10488D2*
X13504D1*
X14398D2*
X18121D1*
X19406D2*
X21375D1*
X6511Y21789D2*
X9414D1*
X10488D2*
X13504D1*
X14398D2*
X17871D1*
X19117D2*
X21375D1*
X6511Y21540D2*
X9414D1*
X10488D2*
X11496D1*
X12910D2*
X13504D1*
X14398D2*
X17625D1*
X18871D2*
X21375D1*
X6511Y21291D2*
X9414D1*
X10488D2*
X11348D1*
X13058D2*
X13504D1*
X14468D2*
X17375D1*
X18621D2*
X21375D1*
X6511Y21043D2*
X9414D1*
X10488D2*
X11360D1*
X13043D2*
X13528D1*
X14718D2*
X17125D1*
X18371D2*
X21375D1*
X6511Y20794D2*
X9414D1*
X10488D2*
X11477D1*
X12925D2*
X13723D1*
X14968D2*
X16879D1*
X18125D2*
X21375D1*
X5472Y20545D2*
X7563D1*
X8207D2*
X9414D1*
X10488D2*
X11477D1*
X12925D2*
X13973D1*
X15214D2*
X16629D1*
X17875D2*
X21375D1*
X5453Y20297D2*
X7411D1*
X8812D2*
X9414D1*
X10488D2*
X11325D1*
X14031D2*
X14219D1*
X15464D2*
X16262D1*
X17625D2*
X21375D1*
X22273D2*
X22641D1*
X5312Y20048D2*
X7262D1*
X8875D2*
X9379D1*
X10488D2*
X11075D1*
X14281D2*
X14469D1*
X15714D2*
X16211D1*
X17378D2*
X21375D1*
X22273D2*
X23114D1*
X6070Y19799D2*
X7016D1*
X8793D2*
X9274D1*
X10488D2*
X10828D1*
X14531D2*
X14719D1*
X15961D2*
X16301D1*
X17128D2*
X21348D1*
X22300D2*
X23114D1*
X6070Y19551D2*
X6766D1*
X8898D2*
X9317D1*
X12171D2*
X12555D1*
X12843D2*
X13645D1*
X14781D2*
X14965D1*
X16211D2*
X21356D1*
X22293D2*
X23114D1*
X6070Y19302D2*
X6516D1*
X8976D2*
X9618D1*
X11921D2*
X13895D1*
X15027D2*
X15215D1*
X16461D2*
X21539D1*
X22109D2*
X23114D1*
X6070Y19053D2*
X6270D1*
X8910D2*
X9727D1*
X11671D2*
X14145D1*
X15277D2*
X15465D1*
X16707D2*
X23114D1*
X8679Y18805D2*
X9832D1*
X11425D2*
X14391D1*
X15527D2*
X15711D1*
X16957D2*
X23114D1*
X8433Y18556D2*
X9582D1*
X11175D2*
X14641D1*
X15773D2*
X15961D1*
X17207D2*
X23114D1*
X8183Y18307D2*
X9336D1*
X11386D2*
X14891D1*
X16023D2*
X16211D1*
X17453D2*
X23114D1*
X7933Y18059D2*
X9086D1*
X11500D2*
X15137D1*
X16273D2*
X16457D1*
X17703D2*
X23114D1*
X7687Y17810D2*
X8836D1*
X10429D2*
X10564D1*
X11687D2*
X14817D1*
X16519D2*
X16707D1*
X17953D2*
X23114D1*
X7625Y17561D2*
X8590D1*
X10179D2*
X10840D1*
X11937D2*
X14688D1*
X16609D2*
X16957D1*
X18082D2*
X23114D1*
X7625Y17312D2*
X8348D1*
X9933D2*
X11219D1*
X12183D2*
X14688D1*
X16609D2*
X17192D1*
X18086D2*
X23114D1*
X7625Y17064D2*
X8289D1*
X9683D2*
X11465D1*
X12433D2*
X14817D1*
X16687D2*
X17192D1*
X18086D2*
X23114D1*
X7625Y16815D2*
X8289D1*
X9488D2*
X11715D1*
X12683D2*
X14821D1*
X16652D2*
X17192D1*
X18086D2*
X23114D1*
X7625Y16566D2*
X8289D1*
X9488D2*
X11965D1*
X12929D2*
X14688D1*
X15828D2*
X16012D1*
X16390D2*
X17192D1*
X18086D2*
X23114D1*
X7625Y16318D2*
X8289D1*
X9488D2*
X12211D1*
X13179D2*
X14688D1*
X15832D2*
X17192D1*
X18086D2*
X23114D1*
X7625Y16069D2*
X8289D1*
X9488D2*
X12461D1*
X13394D2*
X14813D1*
X15707D2*
X17192D1*
X18086D2*
X23114D1*
X7586Y15820D2*
X8289D1*
X9488D2*
X12711D1*
X13421D2*
X14825D1*
X15695D2*
X17192D1*
X18086D2*
X23114D1*
X7386Y15572D2*
X8289D1*
X9898D2*
X12727D1*
X13421D2*
X14692D1*
X15828D2*
X17192D1*
X18086D2*
X23114D1*
X7136Y15323D2*
X8289D1*
X10257D2*
X12727D1*
X13421D2*
X14688D1*
X15832D2*
X17192D1*
X18086D2*
X23114D1*
X6886Y15074D2*
X8289D1*
X10367D2*
X12727D1*
X13421D2*
X14809D1*
X15711D2*
X17192D1*
X18086D2*
X23114D1*
X6640Y14826D2*
X8289D1*
X10375D2*
X12727D1*
X13421D2*
X17192D1*
X18086D2*
X23114D1*
X6390Y14577D2*
X8168D1*
X10277D2*
X12727D1*
X13421D2*
X17192D1*
X18086D2*
X23114D1*
X6140Y14328D2*
X7918D1*
X10253D2*
X12727D1*
X13421D2*
X17192D1*
X18086D2*
X23114D1*
X6023Y14080D2*
X7672D1*
X10367D2*
X12727D1*
X13421D2*
X17192D1*
X18086D2*
X23114D1*
X5832Y13831D2*
X7422D1*
X10375D2*
X12727D1*
X13476D2*
X14836D1*
X19511D2*
X23114D1*
X6007Y13582D2*
X7172D1*
X8828D2*
X9118D1*
X10277D2*
X12774D1*
X13726D2*
X14696D1*
X19668D2*
X23114D1*
X6070Y13333D2*
X6926D1*
X8578D2*
X9411D1*
X9988D2*
X13008D1*
X13972D2*
X14684D1*
X19918D2*
X23114D1*
X6027Y13085D2*
X6676D1*
X8328D2*
X13254D1*
X14222D2*
X14801D1*
X20168D2*
X23114D1*
X5836Y12836D2*
X6426D1*
X8082D2*
X13504D1*
X14472D2*
X14676D1*
X15843D2*
X16426D1*
X17476D2*
X19059D1*
X20394D2*
X23114D1*
X5207Y12587D2*
X6180D1*
X7832D2*
X13754D1*
X15843D2*
X16426D1*
X17476D2*
X19309D1*
X20457D2*
X23114D1*
X5207Y12339D2*
X5930D1*
X7609D2*
X14000D1*
X15843D2*
X16426D1*
X17476D2*
X19532D1*
X20402D2*
X23114D1*
X5207Y12090D2*
X5700D1*
X7609D2*
X14676D1*
X15843D2*
X16426D1*
X17476D2*
X23114D1*
X5207Y11841D2*
X5664D1*
X7609D2*
X16426D1*
X17476D2*
X23114D1*
X5207Y11593D2*
X5664D1*
X7609D2*
X16184D1*
X17476D2*
X23114D1*
X5207Y11344D2*
X5664D1*
X7609D2*
X9871D1*
X17390D2*
X23114D1*
X5207Y11095D2*
X5664D1*
X7656D2*
X9625D1*
X17156D2*
X23114D1*
X5207Y10847D2*
X5664D1*
X7750D2*
X9375D1*
X16906D2*
X23114D1*
X5207Y10598D2*
X5700D1*
X7699D2*
X9125D1*
X16648D2*
X23114D1*
X5207Y10349D2*
X5930D1*
X7046D2*
X7203D1*
X7320D2*
X8879D1*
X10343D2*
X23114D1*
X5207Y10101D2*
X6102D1*
X7046D2*
X8629D1*
X10097D2*
X10395D1*
X10753D2*
X11395D1*
X11753D2*
X12395D1*
X12753D2*
X23114D1*
X5207Y9852D2*
X6102D1*
X7277D2*
X8379D1*
X9847D2*
X10071D1*
X13078D2*
X23114D1*
X5207Y9603D2*
X6063D1*
X7375D2*
X8133D1*
X9597D2*
X9993D1*
X13156D2*
X23114D1*
X5207Y9354D2*
X5961D1*
X7328D2*
X7883D1*
X9351D2*
X10028D1*
X13121D2*
X23114D1*
X5207Y9106D2*
X6008D1*
X7000D2*
X7633D1*
X9101D2*
X9914D1*
X12925D2*
X23114D1*
X5261Y8857D2*
X6332D1*
X6566D2*
X7387D1*
X8851D2*
X9575D1*
X12574D2*
X23114D1*
X5511Y8608D2*
X7137D1*
X8605D2*
X9493D1*
X12656D2*
X23114D1*
X8355Y8360D2*
X9528D1*
X12621D2*
X23114D1*
X4412Y8111D2*
X4543D1*
X8105D2*
X9715D1*
X10433D2*
X10715D1*
X11433D2*
X11715D1*
X12433D2*
X23114D1*
X4412Y7862D2*
X4789D1*
X7859D2*
X23114D1*
X4412Y7614D2*
X5039D1*
X7609D2*
X23114D1*
X4412Y7365D2*
X23114D1*
X4412Y7116D2*
X23114D1*
X4412Y6868D2*
X23114D1*
X4412Y6619D2*
X4871D1*
X6019D2*
X21563D1*
X22714D2*
X23114D1*
X6382Y6370D2*
X21203D1*
X6582Y6122D2*
X21000D1*
X6703Y5873D2*
X20883D1*
X6765Y5624D2*
X20821D1*
X6777Y5375D2*
X20809D1*
X6742Y5127D2*
X20844D1*
X6652Y4878D2*
X20930D1*
X6500Y4629D2*
X21082D1*
X21615Y27477D2*
X21443Y27561D1*
X21241Y27707D1*
X21134Y27815D1*
X14760Y27816D1*
X14674Y27851D1*
X13772Y28753D1*
X6743Y28752D1*
X6753Y28625D1*
X6729Y28376D1*
X6658Y28137D1*
X6543Y27915D1*
X6388Y27719D1*
X6289Y27626D1*
X6512Y27625D1*
X6609Y27616D1*
X6713D1*
X6790Y27714D1*
X6887Y27792D1*
X6999Y27848D1*
X7120Y27877D1*
X7245Y27879D1*
X7367Y27853D1*
X7480Y27800D1*
X7551Y27746D1*
X10062Y27747D1*
X10146Y27779D1*
X10721Y28356D1*
X10819Y28433D1*
X10933Y28483D1*
X11075Y28503D1*
X12888D1*
X13011Y28488D1*
X13127Y28442D1*
X13242Y28356D1*
X13898Y27700D1*
X13975Y27602D1*
X14025Y27487D1*
X14045Y27364D1*
X14034Y27240D1*
X13993Y27122D1*
X13924Y27019D1*
X13831Y26935D1*
X13721Y26877D1*
X13600Y26848D1*
X13475Y26849D1*
X13355Y26882D1*
X13246Y26943D1*
X13013Y27168D1*
X12679Y27502D1*
X11282Y27501D1*
X11117Y27336D1*
X11134Y27192D1*
X11122Y27068D1*
X11082Y26950D1*
X11017Y26843D1*
X10929Y26754D1*
X10825Y26686D1*
X10708Y26643D1*
X10574Y26627D1*
X7555D1*
X7473Y26543D1*
X7375Y26465D1*
X7263Y26411D1*
X7137Y26383D1*
X6637Y26379D1*
X6539Y26388D1*
X6484Y26287D1*
Y25587D1*
X5449D1*
X5447Y25158D1*
X6162Y25162D1*
X6486D1*
Y23962D1*
X5443D1*
X5447Y23535D1*
X6486Y23537D1*
Y22337D1*
X5443D1*
X5447Y21910D1*
X6486Y21912D1*
Y20712D1*
X5443D1*
X5447Y20439D1*
X5433Y20315D1*
X5392Y20197D1*
X5323Y20088D1*
X5153Y19913D1*
X6047Y19912D1*
Y18806D1*
X7420Y20180D1*
X7449Y20348D1*
X7508Y20458D1*
X7593Y20549D1*
X7700Y20613D1*
X7820Y20647D1*
X7944Y20648D1*
X8065Y20616D1*
X8172Y20553D1*
X8224Y20500D1*
X8320Y20522D1*
X8444Y20523D1*
X8565Y20491D1*
X8672Y20428D1*
X8759Y20339D1*
X8819Y20229D1*
X8850Y20062D1*
X8834Y19939D1*
X8785Y19824D1*
X8685Y19710D1*
X8739Y19681D1*
X8834Y19600D1*
X8904Y19497D1*
X8944Y19379D1*
X8951Y19255D1*
X8924Y19133D1*
X8866Y19023D1*
X8749Y18898D1*
X7599Y17747D1*
X7598Y16001D1*
X7582Y15878D1*
X7512Y15733D1*
X7286Y15498D1*
X6046Y14258D1*
X5995Y14069D1*
X5933Y13961D1*
X5850Y13868D1*
X5778Y13815D1*
X5837Y13767D1*
X5923Y13677D1*
X5988Y13570D1*
X6030Y13453D1*
X6047Y13312D1*
X6034Y13188D1*
X5995Y13069D1*
X5933Y12961D1*
X5850Y12868D1*
X5750Y12794D1*
X5636Y12743D1*
X5514Y12716D1*
X5389Y12715D1*
X5267Y12740D1*
X5177Y12779D1*
X5181Y12062D1*
Y8917D1*
X5656Y8440D1*
X6992Y8439D1*
X9908Y11355D1*
X10006Y11431D1*
X10121Y11481D1*
X10262Y11501D1*
X16118D1*
X16449Y11832D1*
Y12973D1*
X15822Y12975D1*
X15820Y11877D1*
X14699D1*
Y12115D1*
X14387Y12113D1*
X14265Y12137D1*
X14158Y12208D1*
X12845Y13520D1*
X12776Y13623D1*
X12750Y13750D1*
Y15808D1*
X11019Y17536D1*
X10869Y17559D1*
X10757Y17613D1*
X10663Y17695D1*
X10594Y17798D1*
X10555Y17917D1*
X10552Y17959D1*
X9462Y16868D1*
X9461Y15552D1*
X9596Y15587D1*
X9720Y15595D1*
X9844Y15579D1*
X9963Y15541D1*
X10072Y15480D1*
X10168Y15400D1*
X10247Y15303D1*
X10306Y15193D1*
X10343Y15074D1*
X10358Y14937D1*
X10346Y14813D1*
X10311Y14693D1*
X10254Y14582D1*
X10177Y14484D1*
X10127Y14440D1*
X10247Y14303D1*
X10306Y14193D1*
X10343Y14074D1*
X10358Y13937D1*
X10346Y13813D1*
X10311Y13693D1*
X10254Y13582D1*
X10177Y13484D1*
X10083Y13402D1*
X9975Y13339D1*
X9857Y13298D1*
X9734Y13279D1*
X9609Y13285D1*
X9488Y13313D1*
X9374Y13364D1*
X9271Y13436D1*
X9185Y13526D1*
X9116Y13630D1*
X9069Y13746D1*
X9051Y13834D1*
X7585Y12365D1*
X7586Y11145D1*
X7636Y11089D1*
X7696Y10980D1*
X7727Y10813D1*
X7710Y10689D1*
X7661Y10575D1*
X7584Y10477D1*
X7483Y10404D1*
X7366Y10360D1*
X7242Y10348D1*
X7120Y10370D1*
X7025Y10415D1*
X7023Y10004D1*
X7066Y9992D1*
X7174Y9928D1*
X7261Y9839D1*
X7321Y9730D1*
X7352Y9563D1*
X7335Y9439D1*
X7286Y9324D1*
X7209Y9227D1*
X7108Y9154D1*
X6991Y9110D1*
X6863Y9099D1*
X6771Y8977D1*
X6670Y8904D1*
X6554Y8860D1*
X6430Y8848D1*
X6307Y8870D1*
X6195Y8924D1*
X6100Y9005D1*
X6031Y9109D1*
X5992Y9227D1*
X5986Y9352D1*
X6013Y9474D1*
X6072Y9584D1*
X6128Y9643D1*
X6125Y10176D1*
X5783Y10521D1*
X5713Y10624D1*
X5688Y10750D1*
Y11938D1*
X5712Y12060D1*
X5783Y12167D1*
X8316Y14700D1*
X8313Y16813D1*
Y17126D1*
X8337Y17248D1*
X8408Y17355D1*
X9947Y18893D1*
X9882Y18925D1*
X9788Y19006D1*
X9719Y19110D1*
X9680Y19229D1*
X9677Y19295D1*
X9620Y19309D1*
X9507Y19362D1*
X9413Y19444D1*
X9344Y19548D1*
X9305Y19666D1*
X9299Y19791D1*
X9326Y19912D1*
X9385Y20022D1*
X9441Y20082D1*
X9438Y21501D1*
Y24239D1*
X9204Y24474D1*
X9057Y24494D1*
X8944Y24548D1*
X8850Y24630D1*
X8781Y24734D1*
X8742Y24852D1*
X8736Y24976D1*
X8763Y25098D1*
X8821Y25208D1*
X8907Y25299D1*
X9014Y25363D1*
X9133Y25397D1*
X9262D1*
X9242Y25477D1*
X9236Y25601D1*
X9263Y25723D1*
X9321Y25833D1*
X9407Y25924D1*
X9514Y25988D1*
X9633Y26022D1*
X9758Y26023D1*
X9878Y25991D1*
X9986Y25928D1*
X10073Y25839D1*
X10133Y25729D1*
X10164Y25562D1*
X10193Y25526D1*
X10366Y25353D1*
X10436Y25250D1*
X10461Y25124D1*
Y19643D1*
X10511Y19590D1*
X10558Y19505D1*
X11499Y20446D1*
X11501Y20857D1*
X11407Y20985D1*
X11368Y21104D1*
X11362Y21228D1*
X11389Y21350D1*
X11447Y21460D1*
X11533Y21550D1*
X11639Y21615D1*
X11759Y21649D1*
X11884Y21650D1*
X12004Y21618D1*
X12112Y21555D1*
X12200Y21463D1*
X12286Y21554D1*
X12393Y21618D1*
X12512Y21652D1*
X12637Y21653D1*
X12757Y21621D1*
X12865Y21558D1*
X12952Y21468D1*
X13012Y21359D1*
X13043Y21192D1*
X13026Y21068D1*
X12977Y20954D1*
X12902Y20859D1*
X12901Y20438D1*
X13074Y20383D1*
X13764D1*
X13887Y20362D1*
X14000Y20301D1*
X14212Y20094D1*
X16471Y17834D1*
X16544Y17733D1*
X16580Y17610D1*
X16583Y17313D1*
Y17263D1*
X16634Y17168D1*
X16665Y17001D1*
X16649Y16877D1*
X16600Y16763D1*
X16522Y16665D1*
X16421Y16592D1*
X16305Y16548D1*
X16181Y16536D1*
X16058Y16558D1*
X15946Y16612D1*
X15851Y16694D1*
X15782Y16797D1*
X15743Y16916D1*
X15737Y17040D1*
X15764Y17162D1*
X15817Y17262D1*
X15806Y17313D1*
X15765Y17195D1*
X15699Y17089D1*
X15611Y17001D1*
X15509Y16936D1*
X15596Y16885D1*
X15686Y16800D1*
X15756Y16697D1*
X15801Y16580D1*
X15820Y16437D1*
X15806Y16313D1*
X15765Y16195D1*
X15699Y16089D1*
X15611Y16001D1*
X15509Y15936D1*
X15596Y15885D1*
X15686Y15800D1*
X15756Y15697D1*
X15801Y15580D1*
X15820Y15437D1*
X15806Y15313D1*
X15765Y15195D1*
X15699Y15089D1*
X15611Y15001D1*
X15506Y14934D1*
X15388Y14892D1*
X15265Y14877D1*
X15141Y14890D1*
X15022Y14930D1*
X14916Y14995D1*
X14827Y15082D1*
X14759Y15186D1*
X14716Y15303D1*
X14700Y15427D1*
X14711Y15551D1*
X14750Y15670D1*
X14814Y15777D1*
X14901Y15867D1*
X15008Y15937D1*
X14916Y15995D1*
X14827Y16082D1*
X14759Y16186D1*
X14716Y16303D1*
X14700Y16427D1*
X14711Y16551D1*
X14750Y16670D1*
X14814Y16777D1*
X14901Y16867D1*
X15008Y16937D1*
X14916Y16995D1*
X14827Y17082D1*
X14759Y17186D1*
X14716Y17303D1*
X14700Y17427D1*
X14711Y17551D1*
X14750Y17670D1*
X14814Y17777D1*
X14901Y17867D1*
X15005Y17936D1*
X15121Y17980D1*
X15222Y18000D1*
X13607Y19616D1*
X12964D1*
X12920Y19590D1*
X12804Y19546D1*
X12679Y19535D1*
X12557Y19557D1*
X12444Y19611D1*
X12350Y19692D1*
X12326Y19728D1*
X11570Y18975D1*
X11059Y18464D1*
X11191Y18431D1*
X11298Y18368D1*
X11385Y18278D1*
X11445Y18169D1*
X11477Y18002D1*
X11506Y17966D1*
X13303Y16168D1*
X13373Y16065D1*
X13398Y15939D1*
Y13881D1*
X14521Y12760D1*
X14703Y12761D1*
X14699Y12997D1*
X14914D1*
X14827Y13082D1*
X14759Y13186D1*
X14716Y13303D1*
X14700Y13427D1*
X14711Y13551D1*
X14750Y13670D1*
X14814Y13777D1*
X14901Y13867D1*
X15005Y13936D1*
X15121Y13980D1*
X15245Y13997D1*
X15369Y13986D1*
X15488Y13949D1*
X15572Y13899D1*
X16756D1*
X16913Y13937D1*
X17038Y13930D1*
X17138Y13899D1*
X17212D1*
X17216Y14437D1*
Y17324D1*
X13652Y20890D1*
X13577Y20990D1*
X13535Y21112D1*
X13528Y21314D1*
Y23251D1*
X13546Y23374D1*
X13602Y23490D1*
X13740Y23638D1*
X14450Y24347D1*
X14509Y24458D1*
X14595Y24549D1*
X14701Y24613D1*
X14833Y24647D1*
X15567Y25381D1*
X15669Y25453D1*
X15808Y25487D1*
X16906Y25488D1*
X17014Y25551D1*
X17133Y25585D1*
X17258Y25586D1*
X17378Y25553D1*
X17486Y25490D1*
X17573Y25401D1*
X17633Y25292D1*
X17664Y25125D1*
X17647Y25001D1*
X17598Y24886D1*
X17521Y24789D1*
X17420Y24715D1*
X17304Y24671D1*
X17179Y24660D1*
X17057Y24682D1*
X16944Y24736D1*
X16912Y24764D1*
X15977Y24761D1*
X15349Y24136D1*
X15335Y24064D1*
X15286Y23949D1*
X15208Y23851D1*
X15108Y23778D1*
X15053Y23757D1*
X14371Y23073D1*
X14373Y21364D1*
X17937Y17800D1*
X18011Y17700D1*
X18053Y17578D1*
X18060Y17376D1*
Y13895D1*
X18869Y13899D1*
X18953Y13948D1*
X19073Y13982D1*
X19197Y13983D1*
X19318Y13951D1*
X19425Y13888D1*
X19512Y13799D1*
X19572Y13690D1*
X19584Y13640D1*
X20295Y12932D1*
X20370Y12833D1*
X20415Y12722D1*
X20431Y12604D1*
X20416Y12434D1*
X20367Y12320D1*
X20290Y12222D1*
X20189Y12149D1*
X20072Y12105D1*
X19948Y12093D1*
X19826Y12115D1*
X19713Y12169D1*
X19619Y12251D1*
X19541Y12380D1*
X18943Y12978D1*
X17762Y12975D1*
X17454D1*
X17452Y12187D1*
Y11625D1*
X17436Y11502D1*
X17391Y11386D1*
X17305Y11271D1*
X16680Y10646D1*
X16581Y10569D1*
X16467Y10520D1*
X16325Y10499D1*
X10470D1*
X7554Y7583D1*
X7455Y7507D1*
X7341Y7457D1*
X7199Y7436D1*
X5449D1*
X5326Y7452D1*
X5210Y7497D1*
X5095Y7583D1*
X4386Y8292D1*
X4387Y6198D1*
X4514Y6351D1*
X4706Y6511D1*
X4924Y6632D1*
X5161Y6709D1*
X5409Y6740D1*
X5658Y6723D1*
X5899Y6659D1*
X6124Y6550D1*
X6324Y6401D1*
X6492Y6216D1*
X6622Y6003D1*
X6709Y5769D1*
X6750Y5523D1*
X6747Y5308D1*
X6699Y5063D1*
X6606Y4832D1*
X6471Y4622D1*
X6298Y4442D1*
X6289Y4435D1*
X8387Y4437D1*
X21294Y4436D1*
X21183Y4541D1*
X21031Y4738D1*
X20919Y4962D1*
X20851Y5202D1*
X20831Y5451D1*
X20858Y5699D1*
X20932Y5937D1*
X21050Y6157D1*
X21207Y6351D1*
X21399Y6511D1*
X21617Y6632D1*
X21854Y6709D1*
X22102Y6740D1*
X22351Y6723D1*
X22592Y6659D1*
X22817Y6550D1*
X23017Y6401D1*
X23138Y6273D1*
X23139Y20363D1*
X23013Y20305D1*
X22891Y20279D1*
X22766Y20278D1*
X22644Y20303D1*
X22529Y20352D1*
X22428Y20425D1*
X22343Y20516D1*
X22279Y20624D1*
X22246Y20723D1*
X22247Y19878D1*
X22287Y19733D1*
X22272Y19564D1*
X22223Y19449D1*
X22146Y19351D1*
X22045Y19278D1*
X21929Y19234D1*
X21804Y19223D1*
X21682Y19244D1*
X21569Y19298D1*
X21475Y19380D1*
X21406Y19484D1*
X21367Y19602D1*
X21361Y19726D1*
X21401Y19872D1*
X21402Y22125D1*
X21420Y22248D1*
X21476Y22364D1*
X21614Y22512D1*
X21965Y22862D1*
X21966Y23826D1*
X21698Y24089D1*
X21758Y23979D1*
X21789Y23812D1*
X21772Y23688D1*
X21723Y23574D1*
X21646Y23476D1*
X21545Y23403D1*
X21476Y23377D1*
X21611Y23303D1*
X21698Y23214D1*
X21758Y23104D1*
X21789Y22937D1*
X21772Y22813D1*
X21723Y22699D1*
X21646Y22601D1*
X21545Y22528D1*
X21429Y22484D1*
X21304Y22472D1*
X21182Y22494D1*
X21136Y22516D1*
X19601Y22515D1*
X19608Y22437D1*
X19592Y22313D1*
X19543Y22199D1*
X19465Y22101D1*
X19364Y22028D1*
X19310Y22007D1*
X17084Y19780D1*
X16980Y19705D1*
X16920Y19670D1*
X16804Y19626D1*
X16679Y19614D1*
X16557Y19636D1*
X16444Y19690D1*
X16350Y19772D1*
X16281Y19875D1*
X16242Y19994D1*
X16236Y20118D1*
X16263Y20240D1*
X16321Y20350D1*
X16407Y20440D1*
X16514Y20505D1*
X16645Y20539D1*
X17812Y21703D1*
X18622Y22513D1*
X16391Y22515D1*
X16304Y22484D1*
X16179Y22472D1*
X16057Y22494D1*
X15944Y22548D1*
X15850Y22630D1*
X15781Y22734D1*
X15742Y22852D1*
X15736Y22976D1*
X15763Y23098D1*
X15821Y23208D1*
X15907Y23299D1*
X16014Y23363D1*
X16047Y23373D1*
X15944Y23423D1*
X15850Y23505D1*
X15781Y23609D1*
X15742Y23727D1*
X15736Y23851D1*
X15763Y23973D1*
X15821Y24083D1*
X15907Y24174D1*
X16014Y24238D1*
X16133Y24272D1*
X16258Y24273D1*
X16389Y24235D1*
X18742Y24234D1*
X18736Y24351D1*
X18776Y24497D1*
X18777Y24769D1*
X17345Y26197D1*
X16894Y26195D1*
X16804Y26164D1*
X16679Y26153D1*
X16557Y26175D1*
X16444Y26228D1*
X16350Y26310D1*
X16281Y26414D1*
X16242Y26532D1*
X16236Y26657D1*
X16263Y26778D1*
X16321Y26888D1*
X16407Y26979D1*
X16514Y27043D1*
X16633Y27077D1*
X16758Y27078D1*
X16889Y27040D1*
X17523D1*
X17646Y27021D1*
X17762Y26965D1*
X17910Y26827D1*
X19498Y25239D1*
X19572Y25139D1*
X19615Y25017D1*
X19622Y24816D1*
Y24507D1*
X19662Y24358D1*
X19653Y24231D1*
X20199Y24234D1*
X21139Y24238D1*
X21258Y24272D1*
X21383Y24273D1*
X21503Y24241D1*
X21611Y24178D1*
X21698Y24089D1*
X21525Y24267D1*
X21451Y24367D1*
X21409Y24489D1*
X21402Y24691D1*
Y26867D1*
X21367Y26977D1*
X21361Y27101D1*
X21388Y27223D1*
X21446Y27333D1*
X21532Y27424D1*
X21615Y27474D1*
X23136Y25051D2*
X23013Y24993D1*
X22891Y24966D1*
X22766Y24965D1*
X22644Y24990D1*
X22529Y25040D1*
X22428Y25112D1*
X22343Y25204D1*
X22279Y25311D1*
X22246Y25411D1*
X22247Y24738D1*
X22687Y24300D1*
X22761Y24200D1*
X22804Y24078D1*
X22811Y23877D1*
Y22689D1*
X22790Y22558D1*
X22850Y22474D1*
X23143D1*
X23139Y23062D1*
Y25050D1*
X10573Y8310D2*
X10513Y8214D1*
X10426Y8126D1*
X10320Y8059D1*
X10203Y8017D1*
X10079Y8002D1*
X9955Y8015D1*
X9837Y8055D1*
X9730Y8120D1*
X9641Y8207D1*
X9573Y8311D1*
X9530Y8428D1*
X9514Y8552D1*
X9526Y8676D1*
X9565Y8795D1*
X9629Y8902D1*
X9715Y8992D1*
X9819Y9061D1*
X9936Y9105D1*
X10059Y9122D1*
X10184Y9111D1*
X10299Y9075D1*
X10230Y9120D1*
X10141Y9207D1*
X10073Y9311D1*
X10030Y9428D1*
X10014Y9552D1*
X10026Y9676D1*
X10065Y9795D1*
X10129Y9902D1*
X10215Y9992D1*
X10319Y10061D1*
X10436Y10105D1*
X10559Y10122D1*
X10684Y10111D1*
X10802Y10074D1*
X10910Y10010D1*
X11001Y9925D1*
X11075Y9811D1*
X11129Y9902D1*
X11215Y9992D1*
X11319Y10061D1*
X11436Y10105D1*
X11559Y10122D1*
X11684Y10111D1*
X11802Y10074D1*
X11910Y10010D1*
X12001Y9925D1*
X12075Y9811D1*
X12129Y9902D1*
X12215Y9992D1*
X12319Y10061D1*
X12436Y10105D1*
X12559Y10122D1*
X12684Y10111D1*
X12802Y10074D1*
X12910Y10010D1*
X13001Y9925D1*
X13071Y9822D1*
X13116Y9705D1*
X13134Y9562D1*
X13120Y9438D1*
X13079Y9320D1*
X13013Y9214D1*
X12926Y9126D1*
X12820Y9059D1*
X12703Y9017D1*
X12579Y9002D1*
X12455Y9015D1*
X12348Y9051D1*
X12410Y9010D1*
X12501Y8925D1*
X12571Y8822D1*
X12616Y8705D1*
X12634Y8562D1*
X12620Y8438D1*
X12579Y8320D1*
X12513Y8214D1*
X12426Y8126D1*
X12320Y8059D1*
X12203Y8017D1*
X12079Y8002D1*
X11955Y8015D1*
X11837Y8055D1*
X11730Y8120D1*
X11641Y8207D1*
X11575Y8308D1*
X11513Y8214D1*
X11426Y8126D1*
X11320Y8059D1*
X11203Y8017D1*
X11079Y8002D1*
X10955Y8015D1*
X10837Y8055D1*
X10730Y8120D1*
X10641Y8207D1*
X10575Y8308D1*
D30*
X14824Y38812D3*
D31*
X13883D3*
X12942D3*
D30*
X9699D3*
D31*
X8758D3*
X7817D3*
D33*
X17262Y37000D3*
X18207Y35881D3*
X17262Y32062D3*
X18207Y30944D3*
D34*
X18699Y40937D3*
X15392D3*
X21699Y31250D3*
Y34557D3*
X11949Y40937D3*
X8642D3*
D35*
X22824Y26562D3*
D36*
Y25562D3*
Y24562D3*
D35*
X5447Y19312D3*
D36*
Y18312D3*
Y17312D3*
Y16312D3*
Y15312D3*
Y14312D3*
Y13312D3*
Y12312D3*
D35*
X22824Y21874D3*
D36*
Y20874D3*
Y19874D3*
D35*
X5885Y26187D3*
D36*
X4885D3*
D17*
X10074Y8562D3*
X11074D3*
X12074D3*
X13074D3*
X10574Y9562D3*
X11574D3*
X12574D3*
X13574D3*
D37*
X9572Y6062D3*
X14072D3*
D38*
X8722Y4861D3*
X14923D3*
D35*
X5887Y24562D3*
D36*
X4887D3*
D35*
X5887Y22937D3*
D36*
X4887D3*
D35*
X5887Y21312D3*
D36*
X4887D3*
D31*
X21699Y38937D3*
X20990Y36969D3*
D47*
X11824Y29437D3*
D48*
X12824D3*
X13824D3*
Y32437D3*
X12824D3*
X11824D3*
D47*
X7574Y29437D3*
D48*
X8574D3*
X9574D3*
Y32437D3*
X8574D3*
X7574D3*
D47*
X15260Y12437D3*
D48*
Y13437D3*
Y14437D3*
Y15437D3*
Y16437D3*
Y17437D3*
D22*
X9699Y12937D3*
Y13937D3*
Y14937D3*
M02*
