G04 DipTrace 2.4.0.2*
%INTemperatureController.GTO*%
%MOIN*%
%ADD10C,0.0098*%
%ADD14C,0.0118*%
%ADD15C,0.0236*%
%ADD18C,0.0394*%
%ADD20C,0.0157*%
%ADD25C,0.0438*%
%ADD44C,0.0154*%
%ADD129C,0.0077*%
%ADD130C,0.0108*%
%FSLAX44Y44*%
G04*
G70*
G90*
G75*
G01*
%LNTopSilk*%
%LPD*%
X21967Y13304D2*
D10*
Y12675D1*
X22041Y13304D2*
Y12675D1*
Y13304D2*
X21805D1*
X22041Y12675D2*
X21805D1*
X16904Y4543D2*
Y5409D1*
Y4543D2*
X19069D1*
X19502Y4976D2*
X19069Y4543D1*
X19502Y4976D2*
Y5409D1*
X16904Y6276D2*
Y7142D1*
X19069D1*
X19502Y6709D2*
X19069Y7142D1*
X19502Y6276D2*
Y6709D1*
D15*
X19739Y5331D3*
X19891Y11657D2*
D10*
Y11028D1*
X19966Y11657D2*
Y11028D1*
Y11657D2*
X19730D1*
X19966Y11028D2*
X19730D1*
X21967Y18429D2*
Y17800D1*
X22041Y18429D2*
Y17800D1*
Y18429D2*
X21805D1*
X22041Y17800D2*
X21805D1*
X18271Y16811D2*
Y17441D1*
X18196Y16811D2*
Y17441D1*
Y16811D2*
X18432D1*
X18196Y17441D2*
X18432D1*
X7811Y19785D2*
X8172Y19424D1*
X15379Y38288D2*
X12387D1*
Y39336D1*
X15379D1*
Y38288D1*
X15423Y33222D2*
X12348D1*
Y38301D1*
X15423D1*
Y33222D1*
X10254Y38288D2*
X7262D1*
Y39336D1*
X10254D1*
Y38288D1*
X10298Y33221D2*
X7223D1*
Y38301D1*
X10298D1*
Y33221D1*
X7767Y15188D2*
X7256D1*
X8830D2*
X8318D1*
X19349Y38375D2*
X16199D1*
Y29713D1*
X19349D1*
Y38375D1*
X19762Y40032D2*
X14329D1*
Y42158D1*
X19762D1*
Y40032D1*
G36*
X17824Y39562D2*
X16449D1*
Y40062D1*
X17824D1*
Y39562D1*
G37*
X20795Y30187D2*
D10*
X22921D1*
Y35620D1*
X20795D1*
Y30187D1*
G36*
X20324Y32124D2*
X20824D1*
Y33500D1*
X20324D1*
Y32124D1*
G37*
X13012Y40032D2*
D10*
X7579D1*
Y42158D1*
X13012D1*
Y40032D1*
G36*
X11074Y39562D2*
X9699D1*
Y40062D1*
X11074D1*
Y39562D1*
G37*
X23324Y27062D2*
D10*
X22324D1*
Y24062D1*
X23324D1*
Y27062D1*
X5947Y19812D2*
X4947D1*
Y11812D1*
X5947D1*
Y19812D1*
X23324Y22374D2*
X22324D1*
Y19375D1*
X23324D1*
Y22374D1*
X6385Y25687D2*
X4385D1*
Y26687D1*
X6385D1*
Y25687D1*
X6387Y24062D2*
X4387D1*
Y25062D1*
X6387D1*
Y24062D1*
Y22437D2*
X4387D1*
Y23437D1*
X6387D1*
Y22437D1*
Y20812D2*
X4387D1*
Y21812D1*
X6387D1*
Y20812D1*
D44*
X11328Y27040D3*
X11420Y27541D2*
D10*
X12601D1*
Y27738D1*
X11420D1*
Y27541D1*
D44*
X8203Y27040D3*
X8295Y27541D2*
D10*
X9476D1*
Y27738D1*
X8295D1*
Y27541D1*
X11941Y34754D2*
Y34518D1*
X10957Y34754D2*
Y34518D1*
X22152Y36811D2*
Y38819D1*
X20538Y37087D2*
Y39094D1*
X22152D2*
G03X20538Y39094I-807J-202D01*
G01*
Y36811D2*
G03X22152Y36811I807J202D01*
G01*
X6691Y34754D2*
Y34518D1*
X5707Y34754D2*
Y34518D1*
X14674Y29913D2*
Y31961D1*
X10974Y29913D2*
X14674D1*
X10974Y31961D2*
X14674D1*
X10974Y29913D2*
Y30701D1*
Y31961D2*
Y31173D1*
Y30701D2*
G03X10974Y31173I0J236D01*
G01*
X10424Y29913D2*
Y31961D1*
X6724Y29913D2*
X10424D1*
X6724Y31961D2*
X10424D1*
X6724Y29913D2*
Y30701D1*
Y31961D2*
Y31173D1*
Y30701D2*
G03X6724Y31173I0J236D01*
G01*
D44*
X19626Y7804D3*
X18734Y7793D2*
D10*
Y10392D1*
X17631Y7793D2*
Y10392D1*
X18734D2*
X17631D1*
X18734Y7793D2*
X17631D1*
D44*
X22534Y14816D3*
X22032Y14908D2*
D10*
Y16089D1*
X21835D1*
Y14908D1*
X22032D1*
D44*
X17681Y14084D3*
X17734Y14625D2*
D10*
X18915D1*
X17734Y14940D2*
X18915D1*
Y14625D2*
Y14940D1*
X17734Y14625D2*
Y14940D1*
X15760Y11937D2*
Y17937D1*
X14760Y11937D2*
Y17937D1*
X15760Y11937D2*
X14760D1*
X15760Y17937D2*
X14760D1*
X18892Y23886D2*
X15506D1*
X18892Y22862D2*
X15506D1*
Y23886D2*
Y22862D1*
X18892Y23886D2*
Y23571D1*
Y23177D2*
Y22862D1*
Y23571D2*
G03X18892Y23177I0J-197D01*
G01*
X9527Y17792D2*
X13070D1*
Y21336D1*
X9527D1*
Y17792D1*
G36*
D2*
X9842D1*
X9527Y18107D1*
Y17792D1*
G37*
D20*
X9546Y17320D3*
X9199Y12437D2*
D10*
X10199D1*
Y15437D1*
X9199D1*
Y12437D1*
D25*
X9668Y12031D3*
X12806Y14386D2*
D10*
X10838D1*
X12806Y13362D2*
X10838D1*
Y14386D2*
Y13362D1*
X12806Y14071D2*
Y14386D1*
Y13677D2*
Y13362D1*
Y14071D2*
G03X12806Y13677I0J-197D01*
G01*
X12199Y24646D2*
X10512D1*
X12199Y23228D2*
X10512D1*
D25*
X15232Y11469D3*
X4262Y31065D2*
D18*
X5699D1*
X15075Y30377D2*
X16325Y29127D1*
X20826D1*
D14*
X6083Y9812D3*
X5256Y10796D2*
D10*
X4981D1*
X5217Y7804D2*
X4981D1*
X11616Y37943D2*
D129*
X12118D1*
Y38110D1*
X12094Y38182D1*
X12046Y38230D1*
X11998Y38254D1*
X11927Y38278D1*
X11807D1*
X11735Y38254D1*
X11688Y38230D1*
X11640Y38182D1*
X11616Y38110D1*
Y37943D1*
X11712Y38432D2*
X11688Y38480D1*
X11616Y38552D1*
X12118D1*
X6491Y37835D2*
X6993D1*
Y38002D1*
X6969Y38074D1*
X6921Y38122D1*
X6873Y38146D1*
X6802Y38170D1*
X6682D1*
X6610Y38146D1*
X6562Y38122D1*
X6514Y38074D1*
X6491Y38002D1*
Y37835D1*
X6610Y38349D2*
X6587D1*
X6539Y38372D1*
X6515Y38396D1*
X6491Y38444D1*
Y38540D1*
X6515Y38587D1*
X6539Y38611D1*
X6587Y38635D1*
X6634D1*
X6682Y38611D1*
X6754Y38564D1*
X6993Y38324D1*
Y38659D1*
X17792Y39107D2*
X17481D1*
Y38604D1*
Y38867D2*
X17672D1*
X17947Y39011D2*
X17995Y39035D1*
X18067Y39106D1*
Y38604D1*
X15836Y42891D2*
Y42388D1*
X16171Y42891D2*
Y42388D1*
X15836Y42651D2*
X16171D1*
X16325Y42580D2*
X16612D1*
Y42628D1*
X16588Y42676D1*
X16564Y42699D1*
X16516Y42723D1*
X16444D1*
X16397Y42699D1*
X16349Y42651D1*
X16325Y42580D1*
Y42532D1*
X16349Y42460D1*
X16397Y42413D1*
X16444Y42388D1*
X16516D1*
X16564Y42413D1*
X16612Y42460D1*
X17053Y42723D2*
Y42388D1*
Y42651D2*
X17006Y42699D1*
X16957Y42723D1*
X16886D1*
X16838Y42699D1*
X16791Y42651D1*
X16766Y42580D1*
Y42532D1*
X16791Y42460D1*
X16838Y42413D1*
X16886Y42388D1*
X16957D1*
X17006Y42413D1*
X17053Y42460D1*
X17494Y42891D2*
Y42388D1*
Y42651D2*
X17447Y42699D1*
X17399Y42723D1*
X17327D1*
X17279Y42699D1*
X17231Y42651D1*
X17207Y42580D1*
Y42532D1*
X17231Y42460D1*
X17279Y42413D1*
X17327Y42388D1*
X17399D1*
X17447Y42413D1*
X17494Y42460D1*
X18135Y42795D2*
X18183Y42819D1*
X18255Y42890D1*
Y42388D1*
X21497Y36352D2*
Y35970D1*
X21474Y35898D1*
X21449Y35874D1*
X21402Y35850D1*
X21354D1*
X21306Y35874D1*
X21282Y35898D1*
X21258Y35970D1*
Y36017D1*
X21676Y36232D2*
Y36256D1*
X21700Y36304D1*
X21724Y36328D1*
X21772Y36352D1*
X21867D1*
X21915Y36328D1*
X21939Y36304D1*
X21963Y36256D1*
Y36209D1*
X21939Y36161D1*
X21891Y36089D1*
X21652Y35850D1*
X21987D1*
X8978Y42891D2*
Y42388D1*
X9313Y42891D2*
Y42388D1*
X8978Y42651D2*
X9313D1*
X9467Y42580D2*
X9754D1*
Y42628D1*
X9731Y42676D1*
X9707Y42699D1*
X9659Y42723D1*
X9587D1*
X9539Y42699D1*
X9491Y42651D1*
X9467Y42580D1*
Y42532D1*
X9491Y42460D1*
X9539Y42413D1*
X9587Y42388D1*
X9659D1*
X9707Y42413D1*
X9754Y42460D1*
X10196Y42723D2*
Y42388D1*
Y42651D2*
X10148Y42699D1*
X10100Y42723D1*
X10029D1*
X9981Y42699D1*
X9933Y42651D1*
X9909Y42580D1*
Y42532D1*
X9933Y42460D1*
X9981Y42413D1*
X10029Y42388D1*
X10100D1*
X10148Y42413D1*
X10196Y42460D1*
X10637Y42891D2*
Y42388D1*
Y42651D2*
X10589Y42699D1*
X10541Y42723D1*
X10469D1*
X10422Y42699D1*
X10374Y42651D1*
X10350Y42580D1*
Y42532D1*
X10374Y42460D1*
X10422Y42413D1*
X10469Y42388D1*
X10541D1*
X10589Y42413D1*
X10637Y42460D1*
X11301Y42771D2*
Y42795D1*
X11325Y42843D1*
X11349Y42866D1*
X11397Y42890D1*
X11493D1*
X11540Y42866D1*
X11564Y42843D1*
X11588Y42795D1*
Y42747D1*
X11564Y42699D1*
X11516Y42628D1*
X11277Y42388D1*
X11612D1*
X11145Y35995D2*
X11360D1*
X11431Y36019D1*
X11456Y36043D1*
X11479Y36090D1*
Y36139D1*
X11456Y36186D1*
X11431Y36210D1*
X11360Y36234D1*
X11145D1*
Y35732D1*
X11312Y35995D2*
X11479Y35732D1*
X11634Y36138D2*
X11682Y36162D1*
X11754Y36234D1*
Y35732D1*
X20933Y40217D2*
X21148D1*
X21220Y40242D1*
X21244Y40265D1*
X21268Y40313D1*
Y40361D1*
X21244Y40409D1*
X21220Y40433D1*
X21148Y40457D1*
X20933D1*
Y39954D1*
X21100Y40217D2*
X21268Y39954D1*
X21470Y40456D2*
X21733D1*
X21589Y40265D1*
X21661D1*
X21709Y40241D1*
X21733Y40217D1*
X21757Y40145D1*
Y40098D1*
X21733Y40026D1*
X21685Y39978D1*
X21613Y39954D1*
X21541D1*
X21470Y39978D1*
X21446Y40002D1*
X21422Y40050D1*
X5787Y35995D2*
X6002D1*
X6074Y36019D1*
X6098Y36043D1*
X6122Y36090D1*
Y36139D1*
X6098Y36186D1*
X6074Y36210D1*
X6002Y36234D1*
X5787D1*
Y35732D1*
X5954Y35995D2*
X6122Y35732D1*
X6563Y36234D2*
X6324D1*
X6301Y36019D1*
X6324Y36042D1*
X6396Y36067D1*
X6468D1*
X6539Y36042D1*
X6588Y35995D1*
X6611Y35923D1*
Y35875D1*
X6588Y35804D1*
X6539Y35756D1*
X6468Y35732D1*
X6396D1*
X6324Y35756D1*
X6301Y35780D1*
X6276Y35827D1*
X13039Y25805D2*
X13541D1*
X13039Y25638D2*
Y25973D1*
X13302Y26127D2*
Y26343D1*
X13278Y26414D1*
X13254Y26438D1*
X13206Y26462D1*
X13134D1*
X13087Y26438D1*
X13063Y26414D1*
X13039Y26343D1*
Y26127D1*
X13541D1*
X13135Y26616D2*
X13111Y26664D1*
X13039Y26736D1*
X13541D1*
X9916Y27215D2*
Y26712D1*
X9749Y27215D2*
X10084D1*
X10238Y26951D2*
X10454D1*
X10525Y26975D1*
X10549Y27000D1*
X10573Y27047D1*
Y27119D1*
X10549Y27166D1*
X10525Y27191D1*
X10454Y27215D1*
X10238D1*
Y26712D1*
X10752Y27095D2*
Y27118D1*
X10775Y27166D1*
X10799Y27190D1*
X10847Y27214D1*
X10943D1*
X10990Y27190D1*
X11014Y27166D1*
X11038Y27118D1*
Y27071D1*
X11014Y27023D1*
X10967Y26951D1*
X10727Y26712D1*
X11062D1*
X22853Y15324D2*
X23356D1*
X22853Y15157D2*
Y15492D1*
X23117Y15646D2*
Y15861D1*
X23093Y15933D1*
X23068Y15957D1*
X23021Y15981D1*
X22949D1*
X22902Y15957D1*
X22877Y15933D1*
X22853Y15861D1*
Y15646D1*
X23356D1*
X22854Y16183D2*
Y16446D1*
X23045Y16303D1*
Y16375D1*
X23069Y16422D1*
X23093Y16446D1*
X23165Y16470D1*
X23212D1*
X23284Y16446D1*
X23332Y16398D1*
X23356Y16326D1*
Y16255D1*
X23332Y16183D1*
X23308Y16160D1*
X23260Y16135D1*
X16262Y16028D2*
Y15526D1*
X16094Y16028D2*
X16429D1*
X16584Y15765D2*
X16799D1*
X16870Y15789D1*
X16895Y15813D1*
X16919Y15861D1*
Y15933D1*
X16895Y15980D1*
X16870Y16004D1*
X16799Y16028D1*
X16584D1*
Y15526D1*
X17312D2*
Y16028D1*
X17073Y15693D1*
X17432D1*
X14335Y28090D2*
Y27587D1*
X14167Y28090D2*
X14502D1*
X14657Y27826D2*
X14872D1*
X14944Y27850D1*
X14968Y27875D1*
X14992Y27922D1*
Y27994D1*
X14968Y28041D1*
X14944Y28066D1*
X14872Y28090D1*
X14657D1*
Y27587D1*
X15433Y28089D2*
X15194D1*
X15170Y27874D1*
X15194Y27898D1*
X15266Y27922D1*
X15337D1*
X15409Y27898D1*
X15457Y27850D1*
X15481Y27778D1*
Y27731D1*
X15457Y27659D1*
X15409Y27611D1*
X15337Y27587D1*
X15266D1*
X15194Y27611D1*
X15170Y27635D1*
X15146Y27683D1*
X16285Y18902D2*
Y18399D1*
X16117Y18902D2*
X16452D1*
X16606Y18639D2*
X16822D1*
X16893Y18663D1*
X16918Y18687D1*
X16941Y18734D1*
Y18806D1*
X16918Y18854D1*
X16893Y18878D1*
X16822Y18902D1*
X16606D1*
Y18399D1*
X17383Y18830D2*
X17359Y18878D1*
X17287Y18901D1*
X17239D1*
X17168Y18878D1*
X17120Y18806D1*
X17096Y18686D1*
Y18567D1*
X17120Y18471D1*
X17168Y18423D1*
X17239Y18399D1*
X17263D1*
X17335Y18423D1*
X17383Y18471D1*
X17406Y18543D1*
Y18567D1*
X17383Y18639D1*
X17335Y18686D1*
X17263Y18710D1*
X17239D1*
X17168Y18686D1*
X17120Y18639D1*
X17096Y18567D1*
X14844Y30632D2*
X15203D1*
X15274Y30656D1*
X15322Y30704D1*
X15346Y30776D1*
Y30824D1*
X15322Y30895D1*
X15274Y30944D1*
X15203Y30967D1*
X14844D1*
X14940Y31122D2*
X14916Y31170D1*
X14844Y31242D1*
X15346D1*
X5991Y30525D2*
X6350D1*
X6422Y30549D1*
X6469Y30597D1*
X6494Y30669D1*
Y30716D1*
X6469Y30788D1*
X6422Y30836D1*
X6350Y30860D1*
X5991D1*
X6111Y31039D2*
X6087D1*
X6039Y31062D1*
X6016Y31086D1*
X5992Y31134D1*
Y31230D1*
X6016Y31277D1*
X6039Y31301D1*
X6087Y31325D1*
X6135D1*
X6183Y31301D1*
X6254Y31254D1*
X6494Y31014D1*
Y31349D1*
X19797Y31060D2*
D130*
X20500D1*
Y31462D1*
X19860Y34717D2*
X20563D1*
X19860Y34248D1*
X20563D1*
X14925Y43065D2*
Y42361D1*
X14456Y43065D1*
Y42361D1*
X8112Y43065D2*
Y42361D1*
X7643Y43065D1*
Y42361D1*
X19178Y43093D2*
Y42390D1*
X19579D1*
X12427Y43093D2*
Y42390D1*
X12828D1*
X21633Y19220D2*
D129*
X21584Y19173D1*
X21561Y19101D1*
Y19005D1*
X21584Y18933D1*
X21633Y18885D1*
X21680D1*
X21728Y18910D1*
X21752Y18933D1*
X21776Y18981D1*
X21824Y19125D1*
X21848Y19173D1*
X21872Y19196D1*
X21919Y19220D1*
X21991D1*
X22039Y19173D1*
X22063Y19101D1*
Y19005D1*
X22039Y18933D1*
X21991Y18885D1*
X21657Y19375D2*
X21633Y19423D1*
X21561Y19495D1*
X22063D1*
X22570Y23346D2*
X22522Y23298D1*
X22498Y23226D1*
Y23131D1*
X22522Y23059D1*
X22570Y23011D1*
X22618D1*
X22666Y23035D1*
X22690Y23059D1*
X22713Y23106D1*
X22761Y23250D1*
X22785Y23298D1*
X22809Y23322D1*
X22857Y23346D1*
X22929D1*
X22976Y23298D1*
X23001Y23226D1*
Y23131D1*
X22976Y23059D1*
X22929Y23011D1*
X22618Y23524D2*
X22594D1*
X22546Y23548D1*
X22523Y23572D1*
X22499Y23620D1*
Y23716D1*
X22523Y23763D1*
X22546Y23787D1*
X22594Y23811D1*
X22642D1*
X22690Y23787D1*
X22761Y23739D1*
X23001Y23500D1*
Y23835D1*
X4684Y16432D2*
X4182D1*
Y16145D1*
X4565Y15632D2*
X4612Y15656D1*
X4660Y15704D1*
X4684Y15751D1*
Y15847D1*
X4660Y15895D1*
X4612Y15942D1*
X4565Y15967D1*
X4493Y15991D1*
X4373D1*
X4302Y15967D1*
X4253Y15942D1*
X4206Y15895D1*
X4182Y15847D1*
Y15751D1*
X4206Y15704D1*
X4253Y15656D1*
X4302Y15632D1*
X4684Y15477D2*
X4182D1*
Y15310D1*
X4206Y15238D1*
X4253Y15190D1*
X4302Y15166D1*
X4373Y15142D1*
X4493D1*
X4565Y15166D1*
X4612Y15190D1*
X4660Y15238D1*
X4684Y15310D1*
Y15477D1*
X7446Y17222D2*
X7494Y17247D1*
X7566Y17318D1*
Y16816D1*
X8470Y17199D2*
Y17222D1*
X8494Y17270D1*
X8518Y17294D1*
X8566Y17318D1*
X8662D1*
X8709Y17294D1*
X8733Y17270D1*
X8757Y17222D1*
Y17175D1*
X8733Y17127D1*
X8685Y17055D1*
X8446Y16816D1*
X8781D1*
X5280Y40304D2*
D44*
X4577D1*
X5280Y39835D2*
X4577D1*
X4945Y40304D2*
Y39835D1*
X5280Y39529D2*
X4577D1*
X5113Y38721D2*
X5180Y38754D1*
X5247Y38821D1*
X5280Y38888D1*
Y39022D1*
X5247Y39089D1*
X5180Y39155D1*
X5113Y39190D1*
X5013Y39223D1*
X4845D1*
X4745Y39190D1*
X4678Y39155D1*
X4611Y39089D1*
X4577Y39022D1*
Y38888D1*
X4611Y38821D1*
X4678Y38754D1*
X4745Y38721D1*
X4845D1*
Y38888D1*
X5280Y38414D2*
X4577D1*
X5280Y37945D2*
X4577D1*
X4945Y38414D2*
Y37945D1*
X5280Y36869D2*
X4577Y36601D1*
X5280Y36333D1*
Y35826D2*
X5247Y35893D1*
X5180Y35960D1*
X5113Y35994D1*
X5013Y36027D1*
X4845D1*
X4745Y35994D1*
X4678Y35960D1*
X4611Y35893D1*
X4577Y35826D1*
Y35692D1*
X4611Y35626D1*
X4678Y35558D1*
X4745Y35525D1*
X4845Y35492D1*
X5013D1*
X5113Y35525D1*
X5180Y35558D1*
X5247Y35626D1*
X5280Y35692D1*
Y35826D1*
Y35185D2*
X4577D1*
Y34784D1*
X5280Y34243D2*
X4577D1*
X5280Y34478D2*
Y34009D1*
X4577Y33166D2*
X5280Y33435D1*
X4577Y33703D1*
X4812Y33602D2*
Y33267D1*
X5113Y32358D2*
X5180Y32391D1*
X5247Y32459D1*
X5280Y32525D1*
Y32659D1*
X5247Y32726D1*
X5180Y32793D1*
X5113Y32827D1*
X5013Y32860D1*
X4845D1*
X4745Y32827D1*
X4678Y32793D1*
X4611Y32726D1*
X4577Y32659D1*
Y32525D1*
X4611Y32459D1*
X4678Y32391D1*
X4745Y32358D1*
X4845D1*
Y32525D1*
X5280Y31617D2*
Y32052D1*
X4577D1*
Y31617D1*
X4945Y32052D2*
Y31784D1*
M02*
