G04 DipTrace 2.4.0.2*
%INTemperatureController.GBO*%
%MOIN*%
%ADD18C,0.0394*%
%ADD44C,0.0154*%
%ADD131C,0.0093*%
%ADD132C,0.0062*%
%FSLAX44Y44*%
G04*
G70*
G90*
G75*
G01*
%LNBotSilk*%
%LPD*%
X20763Y29190D2*
D18*
X16325D1*
X16263Y29252D2*
X15013Y30502D1*
X6324Y31002D2*
X4199D1*
X4618Y40304D2*
D44*
X5321D1*
X4618Y39835D2*
X5321D1*
X4953Y40304D2*
Y39835D1*
X4618Y39529D2*
X5321D1*
X4785Y38721D2*
X4718Y38754D1*
X4651Y38821D1*
X4618Y38888D1*
Y39022D1*
X4651Y39089D1*
X4718Y39155D1*
X4785Y39190D1*
X4886Y39223D1*
X5053D1*
X5153Y39190D1*
X5221Y39155D1*
X5287Y39089D1*
X5321Y39022D1*
Y38888D1*
X5287Y38821D1*
X5221Y38754D1*
X5153Y38721D1*
X5053D1*
Y38888D1*
X4618Y38414D2*
X5321D1*
X4618Y37945D2*
X5321D1*
X4953Y38414D2*
Y37945D1*
X4618Y36869D2*
X5321Y36601D1*
X4618Y36333D1*
Y35826D2*
X4651Y35893D1*
X4718Y35960D1*
X4785Y35994D1*
X4886Y36027D1*
X5053D1*
X5153Y35994D1*
X5221Y35960D1*
X5287Y35893D1*
X5321Y35826D1*
Y35692D1*
X5287Y35626D1*
X5221Y35558D1*
X5153Y35525D1*
X5053Y35492D1*
X4886D1*
X4785Y35525D1*
X4718Y35558D1*
X4651Y35626D1*
X4618Y35692D1*
Y35826D1*
Y35185D2*
X5321D1*
Y34784D1*
X4618Y34243D2*
X5321D1*
X4618Y34478D2*
Y34009D1*
X5321Y33166D2*
X4618Y33435D1*
X5321Y33703D1*
X5087Y33602D2*
Y33267D1*
X4785Y32358D2*
X4718Y32391D1*
X4651Y32459D1*
X4618Y32525D1*
Y32659D1*
X4651Y32726D1*
X4718Y32793D1*
X4785Y32827D1*
X4886Y32860D1*
X5053D1*
X5153Y32827D1*
X5221Y32793D1*
X5287Y32726D1*
X5321Y32659D1*
Y32525D1*
X5287Y32459D1*
X5221Y32391D1*
X5153Y32358D1*
X5053D1*
Y32525D1*
X4618Y31617D2*
Y32052D1*
X5321D1*
Y31617D1*
X4953Y32052D2*
Y31784D1*
X8404Y21625D2*
D131*
X8777D1*
Y21022D1*
X8404D1*
X8777Y21338D2*
X8547D1*
X8219Y21424D2*
Y21022D1*
Y21309D2*
X8133Y21396D1*
X8075Y21424D1*
X7989D1*
X7932Y21396D1*
X7903Y21309D1*
Y21022D1*
X7632Y21625D2*
Y21137D1*
X7603Y21051D1*
X7545Y21022D1*
X7488D1*
X7718Y21424D2*
X7517D1*
X7303Y21252D2*
X6959D1*
Y21309D1*
X6987Y21367D1*
X7016Y21396D1*
X7074Y21424D1*
X7160D1*
X7217Y21396D1*
X7275Y21338D1*
X7303Y21252D1*
Y21195D1*
X7275Y21108D1*
X7217Y21051D1*
X7160Y21022D1*
X7074D1*
X7016Y21051D1*
X6959Y21108D1*
X6774Y21424D2*
Y21022D1*
Y21252D2*
X6745Y21338D1*
X6687Y21396D1*
X6630Y21424D1*
X6544D1*
X8774Y23250D2*
Y22647D1*
X8573D1*
X8487Y22677D1*
X8429Y22734D1*
X8401Y22791D1*
X8372Y22877D1*
Y23021D1*
X8401Y23107D1*
X8429Y23164D1*
X8487Y23222D1*
X8573Y23250D1*
X8774D1*
X8044Y23049D2*
X8101Y23021D1*
X8159Y22963D1*
X8187Y22877D1*
Y22820D1*
X8159Y22734D1*
X8101Y22677D1*
X8044Y22647D1*
X7958D1*
X7900Y22677D1*
X7843Y22734D1*
X7814Y22820D1*
Y22877D1*
X7843Y22963D1*
X7900Y23021D1*
X7958Y23049D1*
X8044D1*
X7628D2*
X7514Y22647D1*
X7399Y23049D1*
X7284Y22647D1*
X7170Y23049D1*
X6984D2*
Y22647D1*
Y22935D2*
X6898Y23021D1*
X6840Y23049D1*
X6755D1*
X6697Y23021D1*
X6669Y22935D1*
Y22647D1*
X7601Y24875D2*
Y24445D1*
X7572Y24359D1*
X7514Y24302D1*
X7428Y24273D1*
X7371D1*
X7285Y24302D1*
X7227Y24359D1*
X7199Y24445D1*
Y24875D1*
X7013Y24674D2*
Y24072D1*
Y24588D2*
X6956Y24645D1*
X6899Y24674D1*
X6812D1*
X6755Y24645D1*
X6698Y24588D1*
X6669Y24502D1*
Y24444D1*
X6698Y24359D1*
X6755Y24301D1*
X6812Y24273D1*
X6899D1*
X6956Y24301D1*
X7013Y24359D1*
X8200Y25898D2*
Y26501D1*
X8429Y25898D1*
X8659Y26501D1*
Y25898D1*
X8015Y26127D2*
X7671D1*
Y26185D1*
X7699Y26243D1*
X7728Y26271D1*
X7785Y26300D1*
X7871D1*
X7929Y26271D1*
X7986Y26213D1*
X8015Y26127D1*
Y26070D1*
X7986Y25984D1*
X7929Y25927D1*
X7871Y25898D1*
X7785D1*
X7728Y25927D1*
X7671Y25984D1*
X7485Y26300D2*
Y25898D1*
Y26185D2*
X7399Y26271D1*
X7341Y26300D1*
X7256D1*
X7198Y26271D1*
X7170Y26185D1*
Y25898D1*
X6984Y26300D2*
Y26012D1*
X6956Y25927D1*
X6898Y25898D1*
X6812D1*
X6755Y25927D1*
X6669Y26012D1*
Y26300D2*
Y25898D1*
X10448Y15224D2*
X11051D1*
Y15023D1*
X11022Y14937D1*
X10965Y14879D1*
X10907Y14850D1*
X10821Y14822D1*
X10677D1*
X10591Y14850D1*
X10534Y14879D1*
X10476Y14937D1*
X10448Y15023D1*
Y15224D1*
X10821Y14637D2*
Y14292D1*
X10764D1*
X10706Y14321D1*
X10677Y14350D1*
X10649Y14407D1*
Y14493D1*
X10677Y14550D1*
X10735Y14608D1*
X10821Y14637D1*
X10878D1*
X10965Y14608D1*
X11022Y14550D1*
X11051Y14493D1*
Y14407D1*
X11022Y14349D1*
X10965Y14292D1*
X10448Y14107D2*
X11051D1*
X10735D2*
X10677Y14049D1*
X10649Y13992D1*
Y13906D1*
X10677Y13849D1*
X10735Y13791D1*
X10821Y13763D1*
X10878D1*
X10965Y13791D1*
X11022Y13849D1*
X11051Y13906D1*
Y13992D1*
X11022Y14049D1*
X10965Y14107D1*
X10649Y13578D2*
X10936D1*
X11022Y13549D1*
X11051Y13491D1*
Y13405D1*
X11022Y13348D1*
X10936Y13262D1*
X10649D2*
X11051D1*
X10677Y12733D2*
X11137D1*
X11223Y12761D1*
X11252Y12790D1*
X11280Y12847D1*
Y12933D1*
X11252Y12991D1*
X10764Y12733D2*
X10707Y12790D1*
X10677Y12847D1*
Y12933D1*
X10707Y12991D1*
X10764Y13048D1*
X10850Y13077D1*
X10908D1*
X10993Y13048D1*
X11051Y12991D1*
X11079Y12933D1*
Y12847D1*
X11051Y12790D1*
X10993Y12733D1*
X8926Y14084D2*
D132*
Y13683D1*
X9060Y14084D2*
X8792D1*
X8668D2*
X8400Y13683D1*
Y14084D2*
X8668Y13683D1*
X8808Y13051D2*
X8827Y13089D1*
X8866Y13128D1*
X8904Y13147D1*
X8980D1*
X9019Y13128D1*
X9057Y13089D1*
X9076Y13051D1*
X9095Y12994D1*
Y12898D1*
X9076Y12841D1*
X9057Y12802D1*
X9019Y12764D1*
X8980Y12745D1*
X8904D1*
X8866Y12764D1*
X8827Y12802D1*
X8808Y12841D1*
Y12898D1*
X8904D1*
X8417Y13147D2*
Y12745D1*
X8685Y13147D1*
Y12745D1*
X8293Y13147D2*
Y12745D1*
X8159D1*
X8102Y12764D1*
X8063Y12802D1*
X8044Y12841D1*
X8025Y12898D1*
Y12994D1*
X8044Y13051D1*
X8063Y13089D1*
X8102Y13128D1*
X8159Y13147D1*
X8293D1*
X9060Y14956D2*
X8888D1*
X8830Y14975D1*
X8811Y14994D1*
X8792Y15032D1*
Y15071D1*
X8811Y15109D1*
X8830Y15128D1*
X8888Y15147D1*
X9060D1*
Y14745D1*
X8926Y14956D2*
X8792Y14745D1*
X8668Y15147D2*
X8400Y14745D1*
Y15147D2*
X8668Y14745D1*
X20785Y18820D2*
D131*
X20728Y18877D1*
X20699Y18964D1*
Y19078D1*
X20728Y19165D1*
X20785Y19222D1*
X20842D1*
X20900Y19193D1*
X20929Y19165D1*
X20957Y19108D1*
X21015Y18935D1*
X21043Y18877D1*
X21072Y18849D1*
X21129Y18820D1*
X21216D1*
X21273Y18877D1*
X21302Y18964D1*
Y19078D1*
X21273Y19165D1*
X21216Y19222D1*
X20900Y18492D2*
X20929Y18549D1*
X20986Y18607D1*
X21072Y18635D1*
X21129D1*
X21216Y18607D1*
X21273Y18549D1*
X21302Y18492D1*
Y18406D1*
X21273Y18348D1*
X21216Y18291D1*
X21129Y18262D1*
X21072D1*
X20986Y18291D1*
X20929Y18348D1*
X20900Y18406D1*
Y18492D1*
X20699Y18077D2*
X21302D1*
X20699Y17547D2*
X21302D1*
X20986D2*
X20929Y17604D1*
X20900Y17662D1*
Y17748D1*
X20929Y17805D1*
X20986Y17863D1*
X21072Y17891D1*
X21129D1*
X21216Y17863D1*
X21273Y17805D1*
X21302Y17748D1*
Y17662D1*
X21273Y17604D1*
X21216Y17547D1*
X21072Y17362D2*
Y17018D1*
X21015D1*
X20957Y17046D1*
X20929Y17075D1*
X20900Y17132D1*
Y17218D1*
X20929Y17276D1*
X20986Y17333D1*
X21072Y17362D1*
X21129D1*
X21216Y17333D1*
X21273Y17276D1*
X21302Y17218D1*
Y17132D1*
X21273Y17075D1*
X21216Y17018D1*
X20900Y16832D2*
X21302D1*
X21072D2*
X20986Y16803D1*
X20929Y16746D1*
X20900Y16688D1*
Y16602D1*
X20699Y16417D2*
X20728Y16388D1*
X20699Y16359D1*
X20670Y16388D1*
X20699Y16417D1*
X20900Y16388D2*
X21302D1*
X20900Y16174D2*
X21302D1*
X21015D2*
X20929Y16088D1*
X20900Y16030D1*
Y15944D1*
X20929Y15887D1*
X21015Y15858D1*
X21302D1*
X20929Y15329D2*
X21388D1*
X21474Y15357D1*
X21503Y15386D1*
X21531Y15443D1*
Y15530D1*
X21503Y15587D1*
X21015Y15329D2*
X20958Y15386D1*
X20929Y15443D1*
Y15530D1*
X20958Y15587D1*
X21015Y15644D1*
X21101Y15673D1*
X21159D1*
X21244Y15644D1*
X21302Y15587D1*
X21330Y15530D1*
Y15443D1*
X21302Y15386D1*
X21244Y15329D1*
X20699Y14560D2*
X21302D1*
X20699Y14158D2*
X21302D1*
X20986Y14560D2*
Y14158D1*
X21072Y13973D2*
Y13629D1*
X21015D1*
X20957Y13657D1*
X20929Y13686D1*
X20900Y13744D1*
Y13830D1*
X20929Y13887D1*
X20986Y13944D1*
X21072Y13973D1*
X21129D1*
X21216Y13944D1*
X21273Y13887D1*
X21302Y13830D1*
Y13744D1*
X21273Y13686D1*
X21216Y13629D1*
X20900Y13099D2*
X21302D1*
X20986D2*
X20929Y13156D1*
X20900Y13214D1*
Y13300D1*
X20929Y13357D1*
X20986Y13414D1*
X21072Y13444D1*
X21129D1*
X21216Y13414D1*
X21273Y13357D1*
X21302Y13300D1*
Y13214D1*
X21273Y13156D1*
X21216Y13099D1*
X20699Y12570D2*
X21302D1*
X20986D2*
X20929Y12627D1*
X20900Y12685D1*
Y12771D1*
X20929Y12828D1*
X20986Y12886D1*
X21072Y12914D1*
X21129D1*
X21216Y12886D1*
X21273Y12828D1*
X21302Y12771D1*
Y12685D1*
X21273Y12627D1*
X21216Y12570D1*
X20842Y11371D2*
X20785Y11399D1*
X20728Y11457D1*
X20699Y11514D1*
Y11629D1*
X20728Y11687D1*
X20785Y11744D1*
X20842Y11773D1*
X20929Y11801D1*
X21072D1*
X21158Y11773D1*
X21216Y11744D1*
X21273Y11687D1*
X21302Y11629D1*
Y11514D1*
X21273Y11457D1*
X21216Y11399D1*
X21158Y11371D1*
X20900Y11042D2*
X20929Y11099D1*
X20986Y11157D1*
X21072Y11186D1*
X21129D1*
X21216Y11157D1*
X21273Y11099D1*
X21302Y11042D1*
Y10956D1*
X21273Y10898D1*
X21216Y10841D1*
X21129Y10812D1*
X21072D1*
X20986Y10841D1*
X20929Y10898D1*
X20900Y10956D1*
Y11042D1*
Y10627D2*
X21302D1*
X21015D2*
X20929Y10541D1*
X20900Y10483D1*
Y10397D1*
X20929Y10340D1*
X21015Y10311D1*
X21302D1*
X20699Y10040D2*
X21187D1*
X21273Y10011D1*
X21302Y9954D1*
Y9897D1*
X20900Y10126D2*
Y9925D1*
Y9711D2*
X21302D1*
X21072D2*
X20986Y9682D1*
X20929Y9625D1*
X20900Y9567D1*
Y9481D1*
Y9153D2*
X20929Y9210D1*
X20986Y9267D1*
X21072Y9296D1*
X21129D1*
X21216Y9267D1*
X21273Y9210D1*
X21302Y9153D1*
Y9066D1*
X21273Y9009D1*
X21216Y8952D1*
X21129Y8922D1*
X21072D1*
X20986Y8952D1*
X20929Y9009D1*
X20900Y9066D1*
Y9153D1*
X20699Y8737D2*
X21302D1*
X20699Y8552D2*
X21302D1*
X21072Y8367D2*
Y8022D1*
X21015D1*
X20957Y8051D1*
X20929Y8079D1*
X20900Y8137D1*
Y8223D1*
X20929Y8280D1*
X20986Y8338D1*
X21072Y8367D1*
X21129D1*
X21216Y8338D1*
X21273Y8280D1*
X21302Y8223D1*
Y8137D1*
X21273Y8079D1*
X21216Y8022D1*
X20900Y7837D2*
X21302D1*
X21072D2*
X20986Y7808D1*
X20929Y7751D1*
X20900Y7693D1*
Y7607D1*
X22002Y13707D2*
X21973Y13649D1*
X21887Y13563D1*
X22490D1*
X22432Y13349D2*
X22461Y13377D1*
X22490Y13349D1*
X22461Y13320D1*
X22432Y13349D1*
X21887Y12962D2*
X21916Y13048D1*
X22002Y13106D1*
X22145Y13134D1*
X22232D1*
X22375Y13106D1*
X22461Y13048D1*
X22490Y12962D1*
Y12905D1*
X22461Y12819D1*
X22375Y12762D1*
X22232Y12733D1*
X22145D1*
X22002Y12762D1*
X21916Y12819D1*
X21887Y12905D1*
Y12962D1*
X22002Y12762D2*
X22375Y13106D1*
M02*
