M48
INCH
T01C0.0191
T02C0.0354
T03C0.0394
T04C0.0433
T05C0.0512
T06C0.063
T07C0.0709
T08C0.1181
T09C0.128
%
T01
X+014638Y+025064
X+014887Y+024187
X+016199Y+023812
X+016199Y+022937
X+014824Y+022437
X+014574Y+021812
X+013199Y+021937
X+012578Y+021192
X+012200Y+020814
X+011825Y+021189
X+011075Y+020689
X+010762Y+020314
X+009762Y+019751
X+010137Y+019314
X+011012Y+018002
X+011698Y+018686
X+012699Y+020000
X+015888Y+020439
X+016699Y+020079
X+017199Y+021625
X+018324Y+020062
X+018699Y+019437
X+019324Y+019437
X+019949Y+019437
X+020574Y+019437
X+020949Y+019937
X+020324Y+020187
X+021824Y+019687
X+021449Y+018937
X+020949Y+016062
X+020949Y+014937
X+019138Y+013522
X+019968Y+012558
X+021449Y+012062
X+017966Y+011860
X+018199Y+009125
X+017262Y+006625
X+016074Y+005812
X+017262Y+005062
X+006887Y+009563
X+006449Y+009313
X+006324Y+008750
X+007262Y+010813
X+008137Y+017564
X+008449Y+019250
X+008385Y+020062
X+007885Y+020187
X+007637Y+021500
X+007637Y+022812
X+007637Y+024125
X+007575Y+025439
X+007949Y+026437
X+008637Y+025564
X+009199Y+024937
X+009699Y+025562
X+010512Y+026562
X+010574Y+027187
X+012762Y+027187
X+013544Y+027346
X+014638Y+026252
X+015950Y+026314
X+016699Y+026617
X+017012Y+027687
X+018199Y+027687
X+019137Y+027437
X+020012Y+027437
X+020949Y+027437
X+020574Y+026562
X+021824Y+027062
X+021262Y+024437
X+021324Y+023812
X+021824Y+023375
X+021324Y+022937
X+021262Y+022312
X+019143Y+022437
X+019199Y+024312
X+017199Y+025125
X+015824Y+027687
X+011392Y+025062
X+007190Y+027321
X+017949Y+018937
X+017699Y+018437
X+016200Y+017001
T02
X+010074Y+008562
X+011074Y+008562
X+012074Y+008562
X+013074Y+008562
X+012574Y+009562
X+011574Y+009562
X+010574Y+009562
X+013574Y+009562
X+015260Y+012437
X+015260Y+013437
X+015260Y+014437
X+015260Y+015437
X+015260Y+016437
X+015260Y+017437
X+013824Y+029437
X+012824Y+029437
X+011824Y+029437
X+009574Y+029437
X+008574Y+029437
X+007574Y+029437
X+007574Y+032437
X+008574Y+032437
X+009574Y+032437
X+011824Y+032437
X+012824Y+032437
X+013824Y+032437
X+020990Y+036969
X+021699Y+038937
T03
X+009699Y+012937
X+009699Y+013937
X+009699Y+014937
T04
X+014824Y+038812
X+013883Y+038812
X+012942Y+038812
X+009699Y+038812
X+008758Y+038812
X+007817Y+038812
X+005885Y+026187
X+004885Y+026187
X+004887Y+024562
X+005887Y+024562
X+005887Y+022937
X+004887Y+022937
X+004887Y+021312
X+005887Y+021312
X+005447Y+019312
X+005447Y+018312
X+005447Y+017312
X+005447Y+016312
X+005447Y+015312
X+005447Y+014312
X+005447Y+013312
X+005447Y+012312
X+022824Y+019874
X+022824Y+020874
X+022824Y+021874
X+022824Y+024562
X+022824Y+025562
X+022824Y+026562
T05
X+017262Y+037000
X+018207Y+035881
X+017262Y+032062
X+018207Y+030944
T06
X+008722Y+004861
X+014923Y+004861
T07
X+018699Y+040937
X+015392Y+040937
X+011949Y+040937
X+008642Y+040937
X+021699Y+034557
X+021699Y+031250
T08
X+013883Y+034875
X+008758Y+034874
X+005445Y+028625
X+005445Y+041811
X+022107Y+041811
X+022107Y+028687
X+022138Y+005433
X+005445Y+005433
T09
X+009572Y+006062
X+014072Y+006062
T00
M30
