G04 DipTrace 2.4.0.2*
%INTemperatureController.GTL*%
%MOIN*%
%ADD13C,0.0315*%
%ADD14C,0.0118*%
%ADD15C,0.0236*%
%ADD16C,0.0197*%
%ADD17C,0.0591*%
%ADD18C,0.0394*%
%ADD20C,0.0157*%
%ADD21C,0.0256*%
%ADD22C,0.0787*%
%ADD23C,0.025*%
%ADD24C,0.013*%
%ADD26R,0.063X0.0709*%
%ADD27R,0.0433X0.0394*%
%ADD28R,0.1122X0.0551*%
%ADD29R,0.0394X0.0433*%
%ADD30R,0.0787X0.0787*%
%ADD31C,0.0787*%
%ADD32R,0.0591X0.0512*%
%ADD33C,0.1181*%
%ADD34C,0.1378*%
%ADD35R,0.0669X0.0669*%
%ADD36C,0.0669*%
%ADD37C,0.1575*%
%ADD38C,0.0984*%
%ADD39R,0.0531X0.0394*%
%ADD40R,0.0531X0.0157*%
%ADD41R,0.0551X0.063*%
%ADD42R,0.0512X0.0906*%
%ADD43R,0.0748X0.0669*%
%ADD45R,0.0256X0.0413*%
%ADD46R,0.1063X0.063*%
%ADD47R,0.0591X0.0591*%
%ADD48C,0.0591*%
%ADD49R,0.0846X0.0374*%
%ADD50R,0.0846X0.128*%
%ADD51R,0.0413X0.0256*%
%ADD52R,0.0236X0.0433*%
%ADD53R,0.0236X0.0787*%
%ADD54R,0.0118X0.063*%
%ADD55R,0.063X0.0118*%
%ADD56R,0.0748X0.0945*%
%ADD57C,0.04*%
%FSLAX44Y44*%
G04*
G70*
G90*
G75*
G01*
%LNTop*%
%LPD*%
X17951Y16126D2*
D13*
X17076D1*
X16200Y17001D1*
X16513D1*
X16638Y17126D1*
X17763D1*
X13543Y19859D2*
D14*
X12839D1*
D15*
X12699Y20000D1*
X16951Y16626D2*
D14*
Y16126D1*
X17076D1*
X17951Y15314D2*
D15*
Y16126D1*
D13*
Y16438D1*
X17763Y16626D1*
Y17126D1*
X10574Y27643D2*
D16*
Y27187D1*
X7190Y27321D2*
X7574Y27705D1*
X20399Y11343D2*
D13*
Y12127D1*
X19968Y12558D1*
X19096D1*
X18635Y13019D1*
X19138Y13522D1*
Y14063D1*
D15*
X18951Y14251D1*
X18699D1*
X20449Y9937D2*
D13*
Y11292D1*
X20399Y11343D1*
X19324Y9998D2*
X20388D1*
X20449Y9937D1*
X16324Y13481D2*
X15304D1*
X15260Y13437D1*
X14199D1*
X13574Y14062D1*
Y14373D1*
X13572Y14375D1*
X11594Y17320D2*
D14*
Y16919D1*
X11825Y16688D1*
X11950D1*
X12325Y16313D1*
X12381Y21808D2*
Y22619D1*
X12449Y22687D1*
X11791Y21808D2*
Y22404D1*
X12074Y22687D1*
X12449D1*
X17199Y24437D2*
D16*
Y25125D1*
X14887Y24187D2*
Y23687D1*
X13543Y18481D2*
D14*
X14493D1*
X14512Y18500D1*
X9054Y19466D2*
X8665D1*
X8449Y19250D1*
X8387D1*
Y19187D1*
X8262Y19062D1*
Y18812D1*
X6574Y14232D2*
D13*
Y14312D1*
X5447D1*
X13543Y18481D2*
D14*
X12835D1*
D15*
X12243D1*
X11745Y17983D1*
D14*
X11594Y17832D1*
Y17320D1*
X12325Y16313D2*
D15*
Y16186D1*
X12574Y15937D1*
Y14939D1*
X12572Y14937D1*
Y14501D1*
X12699Y14375D1*
X13572D1*
X12449Y22687D2*
D20*
Y22938D1*
X13199Y23688D1*
Y27001D1*
X13544Y27346D1*
X18699Y14251D2*
D15*
Y15314D1*
X21824Y20205D2*
D13*
Y19687D1*
Y27062D2*
Y26544D1*
X22387Y15873D2*
D21*
Y16158D1*
D13*
Y16703D1*
X22224Y16865D1*
X22951D1*
Y16876D1*
X22224Y16865D2*
Y17337D1*
X22449Y17562D1*
Y18090D1*
X22474Y18115D1*
Y19037D1*
X21824Y19687D1*
X10074Y8562D2*
Y9062D1*
X10574Y9562D1*
X10074Y8562D2*
Y7937D1*
X10699Y7312D1*
X19324D1*
Y8187D1*
Y7312D2*
Y6732D1*
Y6018D1*
X19149Y5843D1*
X19324Y6732D2*
X20869D1*
X22449Y8312D1*
Y12965D1*
X22474Y12990D1*
Y13865D1*
X22224Y14115D1*
Y14962D1*
D21*
X22387Y15125D1*
X21824Y24312D2*
D13*
Y23312D1*
Y22437D1*
X17449Y19768D2*
X18342D1*
X18762Y20187D1*
X19637D1*
X17449Y27044D2*
X18342D1*
X18824Y26562D1*
X19637D1*
X13074Y8562D2*
X13574Y9062D1*
Y9562D1*
X21824Y22437D2*
D20*
X21387D1*
X21262Y22312D1*
X20324Y20187D2*
X19637D1*
X21824Y24312D2*
X21387D1*
X21262Y24437D1*
X20574Y26562D2*
X19637D1*
X21372Y12990D2*
X20638D1*
Y13876D1*
X20878Y14115D1*
X21555D1*
Y14927D1*
Y15425D1*
X21481Y15499D1*
X21555Y16865D2*
Y16011D1*
X21513D1*
Y15531D1*
X21481Y15499D1*
X21555Y16865D2*
X20576D1*
Y18115D1*
X21372D1*
X18325Y14251D2*
D15*
Y13812D1*
D13*
X17966Y13453D1*
Y13019D1*
Y11860D1*
X18483Y11343D1*
X19297D1*
X17041Y9093D2*
X18199D1*
X19324D1*
X19918D1*
X20093Y9268D1*
X20449D1*
X11397Y17320D2*
D14*
Y16741D1*
X11637Y16501D1*
Y16313D1*
X11656D1*
X11844Y25062D2*
X11392D1*
X10933D1*
X17199Y22311D2*
D16*
Y21625D1*
X14824Y22437D2*
Y23018D1*
X14887D1*
X21372Y18115D2*
D14*
X21449D1*
Y18937D1*
X21372Y12990D2*
Y12139D1*
X21449Y12062D1*
X21555Y14927D2*
X20959D1*
X20949Y14937D1*
X21513Y16011D2*
X20898D1*
X20949Y16062D1*
X13543Y19662D2*
X13112D1*
X13012Y19562D1*
Y19269D1*
Y19187D1*
Y18875D1*
Y18750D1*
X13074Y18687D1*
X13534D1*
X13543Y18678D1*
Y18875D2*
X13012D1*
X13543Y19269D2*
X13012D1*
X11397Y17320D2*
Y18385D1*
X11698Y18686D1*
X11850Y18838D1*
X12199Y19187D1*
X13012D1*
X11200Y21808D2*
Y20689D1*
Y19489D1*
X11850Y18838D1*
X13199Y21937D2*
X13118D1*
Y22687D1*
X12385Y27187D2*
X12762D1*
X9260D2*
X9887D1*
X10512Y26562D1*
X7574Y13937D2*
D15*
X8574D1*
X9699Y12937D2*
D13*
X8949D1*
X8574Y13312D1*
D20*
Y13937D1*
X6949Y21393D2*
D14*
Y21500D1*
X7637D1*
X6949Y22830D2*
X7618D1*
X7637Y22812D1*
X6949Y24330D2*
X7431D1*
X7637Y24125D1*
X6949Y25768D2*
X7246D1*
X7575Y25439D1*
X17258Y5843D2*
D13*
Y5812D1*
X16074D1*
X18199Y9125D2*
Y9093D1*
X17258Y5843D2*
X17262D1*
Y5062D1*
X17258Y5843D2*
X17262Y6625D1*
X15260Y14437D2*
D14*
X14824D1*
X14199Y15062D1*
X13590D1*
X13572Y15044D1*
X17012Y14544D2*
D15*
X15852D1*
X15366D1*
X15260Y14437D1*
X13543Y18875D2*
D14*
X14805D1*
X15181Y18500D1*
X7788Y18339D2*
Y17751D1*
X7700D1*
X7074Y18376D1*
Y18783D1*
X7170D1*
X7788Y18339D2*
X7762D1*
Y17938D1*
X8137Y17564D1*
X11072Y14937D2*
Y14310D1*
X10607Y13845D1*
X9699Y12937D1*
X5611Y8040D2*
X4863D1*
X4646Y7824D1*
X5611Y10560D2*
X4863D1*
X4646Y10777D1*
X5699Y8788D2*
X6286D1*
X6324Y8750D1*
X4646Y10777D2*
Y11511D1*
X5447Y12312D1*
X5611Y8040D2*
X6177D1*
X6324Y8187D1*
Y8750D1*
X13574Y9562D2*
Y12939D1*
X12950Y13563D1*
X10889D1*
X10607Y13845D1*
X18620Y16126D2*
Y16858D1*
X18877Y17115D1*
X18865Y17126D1*
X20013D1*
Y16865D1*
X20576D1*
X15852Y14544D2*
Y16724D1*
X15700Y16876D1*
Y17376D1*
X15950Y17626D1*
Y18501D1*
X15182D1*
X15181Y18500D1*
X15950Y18501D2*
X17699D1*
X19201D1*
X20013Y17688D1*
Y17126D1*
X11075Y20689D2*
X11200D1*
X21824Y23375D2*
D13*
Y23312D1*
X17699Y18437D2*
D14*
Y18501D1*
X11200Y17320D2*
Y16063D1*
X11387Y15876D1*
X11762D1*
X12075Y15563D1*
Y14940D1*
X12072Y14937D1*
X11824Y32437D2*
D13*
Y32500D1*
X11449Y32875D1*
Y34085D1*
X9054Y19662D2*
D14*
X8050D1*
X7699Y19312D1*
X7574Y32437D2*
D13*
X7012D1*
X6199Y33250D1*
Y34085D1*
Y35187D2*
Y36187D1*
X7824Y37812D1*
Y38805D1*
X7817Y38812D1*
X11637Y27187D2*
D20*
Y27125D1*
X11199Y26687D1*
Y26187D1*
X17012Y12544D2*
D13*
X16592D1*
X16324Y12812D1*
X17012Y13875D2*
D15*
Y12544D1*
Y11875D2*
D14*
X15822D1*
X15260Y12437D1*
X11012Y18002D2*
Y17328D1*
X11003Y17320D1*
X12260Y11812D2*
Y12127D1*
X12137Y12250D1*
Y12747D1*
X12072Y12811D1*
X12260Y11812D2*
Y10122D1*
X12074Y9937D1*
Y8562D1*
X11572Y12811D2*
Y9564D1*
X11574Y9562D1*
X11072Y12811D2*
X11074Y8562D1*
X21824Y25875D2*
D13*
X22137D1*
X22824Y26562D1*
X21056Y25875D2*
X21824D1*
X19637Y24981D2*
X20368D1*
X20387Y25000D1*
X19637Y24981D2*
X19530D1*
X19199Y25312D1*
X18387D1*
X18199Y25124D1*
Y24437D1*
X20887Y22937D2*
X21324D1*
X16199D2*
Y22311D1*
Y21687D1*
X15887Y21374D1*
Y21205D1*
X15868Y21187D1*
X21824Y20875D2*
X22824D1*
Y20874D1*
X21056Y20875D2*
X21824D1*
Y21768D2*
X22717D1*
X22824Y21874D1*
X21056Y21749D2*
X21806D1*
X21824Y21768D1*
X20990Y36969D2*
D17*
X20302D1*
D22*
X19294D1*
X18207Y35881D1*
X9699Y38812D2*
X9824D1*
X11949Y40937D1*
X12775Y17320D2*
D14*
Y16799D1*
X12887Y16687D1*
X14010D1*
X15260Y15437D1*
X12578Y17320D2*
Y17753D1*
X12762Y17937D1*
X12949D1*
X13262Y17625D1*
X14072D1*
X15260Y16437D1*
X12572Y12811D2*
Y12501D1*
X12887Y12187D1*
Y11854D1*
X12929Y11812D1*
Y11479D1*
X12637Y11187D1*
Y9625D1*
X12574Y9562D1*
X14824Y38812D2*
D22*
X16574D1*
X18699Y40937D1*
X11449Y35187D2*
D13*
Y36312D1*
X12949Y37812D1*
Y38806D1*
X12942Y38812D1*
X8886Y28093D2*
D20*
Y28500D1*
X8574Y28812D1*
Y29437D1*
X8512Y27187D2*
Y26187D1*
X8762D1*
X12011Y28093D2*
Y28124D1*
X12824Y28937D1*
Y29437D1*
X10574Y28312D2*
X10699D1*
X11824Y29437D1*
X21824Y24981D2*
D13*
X22243D1*
X22824Y25562D1*
X21056Y25000D2*
X21806D1*
X21824Y24981D1*
X7574Y28375D2*
D20*
Y29437D1*
X19637Y25893D2*
D13*
X20368D1*
X20387Y25875D1*
X19637Y25893D2*
X18092D1*
X17699Y25499D1*
Y24437D1*
X19637Y24312D2*
X19199D1*
X18699D1*
Y24437D1*
X19637Y24312D2*
Y23937D1*
X19762Y23812D1*
X20217D1*
X16699Y26231D2*
Y26617D1*
Y27062D1*
X20887Y23812D2*
X21324D1*
X16199D2*
Y24437D1*
Y25062D1*
X15949Y25312D1*
Y25544D1*
X15931Y25562D1*
X16699D2*
Y24437D1*
Y25562D2*
X16949D1*
X17449Y26062D1*
Y26374D1*
X15262Y25562D2*
Y24624D1*
X15449Y24437D1*
X15699D1*
X15262Y26393D2*
Y25562D1*
X16030Y27062D2*
X15262D1*
X14449D1*
X13543Y19466D2*
D14*
X13978D1*
X14199Y19687D1*
Y21440D1*
X14013Y21626D1*
Y26626D1*
X14449Y27062D1*
X19637Y21768D2*
D13*
X19530D1*
X19199Y21437D1*
X18324D1*
X18199Y21562D1*
Y22311D1*
X20387Y21749D2*
X19655D1*
X19637Y21768D1*
Y20856D2*
X18155D1*
X17699Y21312D1*
Y22311D1*
X20387Y20875D2*
X19655D1*
X19637Y20856D1*
Y22437D2*
X19143D1*
X18699D1*
Y22311D1*
X20217Y22937D2*
X19762D1*
X19637Y22812D1*
Y22437D1*
X16699Y19687D2*
Y20079D1*
Y20518D1*
X8574Y15562D2*
D14*
Y14606D1*
X16699Y21187D2*
D13*
Y22311D1*
X17449Y20437D2*
Y20749D1*
X17012Y21187D1*
X16699D1*
X15199D2*
Y22062D1*
X15449Y22312D1*
X15698D1*
X15699Y22311D1*
X15199Y20356D2*
Y21187D1*
Y19687D2*
X16030D1*
X15199D2*
X15637D1*
Y19125D1*
X13543Y19072D2*
D14*
X15521D1*
X15574Y19125D1*
X15637D1*
X10806Y17320D2*
Y16082D1*
X11572Y15316D1*
Y14937D1*
X11397Y21808D2*
Y23177D1*
X10637Y23937D1*
X10578D1*
X10264Y25062D2*
Y24251D1*
X10578Y23937D1*
X11594Y21808D2*
Y23207D1*
X12199Y23812D1*
Y23937D1*
X12514Y25062D2*
Y24251D1*
X12199Y23937D1*
X12578Y21808D2*
Y21192D1*
X7262Y10813D2*
X6727D1*
X6699Y10841D1*
X10413Y17320D2*
Y16901D1*
X10075Y16563D1*
Y15313D1*
X9699Y14937D1*
X10610Y17320D2*
Y16723D1*
X10325Y16438D1*
Y14563D1*
X9699Y13937D1*
X9054Y18481D2*
X8618D1*
X8512Y18375D1*
Y17310D1*
X7512Y16310D1*
X9054Y18284D2*
X9477D1*
X9574Y18187D1*
Y17687D1*
X8449Y16562D1*
Y16435D1*
X8574Y16310D1*
X9054Y21040D2*
X7426D1*
X5698Y19312D1*
X5447D1*
X9054Y20844D2*
X7604D1*
X6199Y19439D1*
Y19064D1*
X5447Y18312D1*
X9054Y20647D2*
X7782D1*
X6512Y19376D1*
Y18377D1*
X5447Y17312D1*
X9054Y20450D2*
X8148D1*
X7885Y20187D1*
X9054Y20253D2*
X8576D1*
X8385Y20062D1*
X5885Y26187D2*
D13*
Y25998D1*
X6324Y26437D1*
X6949D1*
X11003Y21808D2*
D14*
Y22758D1*
X10699Y23062D1*
X9949D1*
X8199Y24812D1*
Y25440D1*
X7202Y26437D1*
X6949D1*
X5887Y24562D2*
D13*
Y24500D1*
X6387Y25000D1*
X6949D1*
X10806Y21808D2*
D14*
Y22580D1*
X10574Y22812D1*
X9762D1*
X7574Y25000D1*
X6949D1*
X5887Y22937D2*
D13*
Y22875D1*
X6512Y23500D1*
X6949D1*
X10610Y21808D2*
D14*
Y22402D1*
X10449Y22562D1*
X8699D1*
X7762Y23500D1*
X6949D1*
X5887Y21312D2*
D13*
Y21437D1*
X6512Y22062D1*
X6949D1*
X10413Y21808D2*
D14*
Y22223D1*
X10324Y22312D1*
X8574D1*
X8324Y22062D1*
X6949D1*
X11988Y21808D2*
Y21351D1*
X11825Y21189D1*
X6449Y9313D2*
X5712D1*
X5699Y9300D1*
X12184Y21808D2*
Y20829D1*
X12200Y20814D1*
X6887Y9563D2*
X6699D1*
X6574Y9688D1*
X6324D1*
X6199Y9563D1*
X5706D1*
X5699Y9556D1*
X6574Y13563D2*
D15*
X6323Y13312D1*
X5447D1*
X5699Y9812D2*
D14*
X6011D1*
X6387Y10188D1*
X6637D1*
X6699Y10250D1*
X11868Y26187D2*
D20*
X12574D1*
X9054Y18678D2*
D14*
X9752D1*
X10137Y19064D1*
Y19314D1*
X9699Y25562D2*
X11449D1*
X11824Y25937D1*
Y26143D1*
X11868Y26187D1*
X9431D2*
D20*
X10012D1*
X9054Y18875D2*
D14*
X9511D1*
X9762Y19126D1*
Y19751D1*
X9199Y24937D2*
Y25689D1*
X9387Y25877D1*
Y26187D1*
X9431D1*
X7512Y15562D2*
Y14669D1*
X7574Y14606D1*
D57*
X12699Y20000D3*
X16200Y17001D3*
X10574Y27187D3*
X7190Y27321D3*
X17199Y25125D3*
X14887Y24187D3*
X8449Y19250D3*
X19968Y12558D3*
X19138Y13522D3*
X13544Y27346D3*
X10574Y27187D3*
X21824Y19687D3*
Y27062D3*
X21262Y22312D3*
X20324Y20187D3*
X21262Y24437D3*
X20574Y26562D3*
X17199Y21625D3*
X14824Y22437D3*
X21449Y18937D3*
Y12062D3*
X20949Y14937D3*
Y16062D3*
X13199Y21937D3*
X11392Y25062D3*
X12762Y27187D3*
X10512Y26562D3*
X11392Y25062D3*
X7637Y21500D3*
Y22812D3*
Y24125D3*
X7575Y25439D3*
X16074Y5812D3*
X18199Y9125D3*
X17262Y5062D3*
Y6625D3*
X17966Y11860D3*
X8137Y17564D3*
X6324Y8750D3*
X11698Y18686D3*
X6324Y8750D3*
X8137Y17564D3*
X11012Y18002D3*
X21324Y22937D3*
X16199D3*
X16699Y26617D3*
X19199Y24312D3*
X21324Y23812D3*
X16199D3*
X16699Y20079D3*
X19143Y22437D3*
X12578Y21192D3*
X7262Y10813D3*
X7885Y20187D3*
X8385Y20062D3*
X11825Y21189D3*
X6449Y9313D3*
X12200Y20814D3*
X6887Y9563D3*
X10137Y19314D3*
X9699Y25562D3*
X9762Y19751D3*
X9199Y24937D3*
X14638Y25064D3*
Y26252D3*
X15950Y26314D3*
X15888Y20439D3*
X8637Y25564D3*
X7949Y26437D3*
X10762Y20314D3*
X11075Y20689D3*
X15824Y27687D3*
X17012D3*
X18199D3*
X19137Y27437D3*
X20012D3*
X20949D3*
X21824Y23375D3*
X20949Y19937D3*
X20574Y19437D3*
X19949D3*
X19324D3*
X18699D3*
X18324Y20062D3*
X17949Y18937D3*
X17699Y18437D3*
X14574Y21812D3*
X8062Y28503D2*
D23*
X8371D1*
X9304D2*
X10086D1*
X11402D2*
X11594D1*
X12902D2*
X13934D1*
X8062Y28255D2*
X8469D1*
X9304D2*
X10086D1*
X11152D2*
X11594D1*
X12652D2*
X14184D1*
X8062Y28006D2*
X8469D1*
X9304D2*
X10086D1*
X11062D2*
X11594D1*
X12429D2*
X14430D1*
X8062Y27757D2*
X8469D1*
X9304D2*
X10086D1*
X11062D2*
X11594D1*
X12429D2*
X13305D1*
X13785D2*
X21164D1*
X9679Y27509D2*
X10086D1*
X11062D2*
X11219D1*
X12804D2*
X13082D1*
X14003D2*
X14309D1*
X14589D2*
X14774D1*
X17937D2*
X21516D1*
X9679Y27260D2*
X10086D1*
X11062D2*
X11219D1*
X12804D2*
X12947D1*
X17937D2*
X21379D1*
X7562Y27011D2*
X8094D1*
X9679D2*
X10118D1*
X17937D2*
X19149D1*
X20125D2*
X21336D1*
X7437Y26763D2*
X8094D1*
X9679D2*
X10360D1*
X13566D2*
X13692D1*
X17937D2*
X19149D1*
X20125D2*
X21336D1*
X7609Y26514D2*
X8145D1*
X10363D2*
X10692D1*
X14382D2*
X14774D1*
X15750D2*
X16211D1*
X17937D2*
X19149D1*
X20125D2*
X21336D1*
X7855Y26265D2*
X8145D1*
X10492D2*
X10692D1*
X14363D2*
X14774D1*
X15750D2*
X16211D1*
X10464Y26017D2*
X10692D1*
X14363D2*
X14754D1*
X14363Y25768D2*
X14754D1*
X4421Y25519D2*
X6461D1*
X7437D2*
X7637D1*
X8539D2*
X8852D1*
X14363D2*
X14754D1*
X4421Y25270D2*
X6036D1*
X8546D2*
X8852D1*
X14363D2*
X14754D1*
X8546Y25022D2*
X8718D1*
X14363D2*
X14813D1*
X14363Y24773D2*
X14813D1*
X22656D2*
X23121D1*
X7437Y24524D2*
X7566D1*
X9437D2*
X9914D1*
X14363D2*
X14543D1*
X20125D2*
X21336D1*
X22312D2*
X23121D1*
X7437Y24276D2*
X7817D1*
X9218D2*
X9914D1*
X20125D2*
X21270D1*
X22312D2*
X23121D1*
X4425Y24027D2*
X4593D1*
X7437D2*
X8063D1*
X9468D2*
X9914D1*
X22312D2*
X23125D1*
X4425Y23778D2*
X6168D1*
X7953D2*
X8313D1*
X9714D2*
X9914D1*
X15375D2*
X15711D1*
X16687D2*
X19219D1*
X21812D2*
X23125D1*
X4425Y23530D2*
X4774D1*
X5000D2*
X5262D1*
X8214D2*
X8563D1*
X13531D2*
X13664D1*
X15375D2*
X15805D1*
X16593D2*
X19422D1*
X21718D2*
X23125D1*
X8464Y23281D2*
X8809D1*
X13304D2*
X13664D1*
X15375D2*
X15860D1*
X16539D2*
X19493D1*
X21664D2*
X23125D1*
X7437Y23032D2*
X7746D1*
X8711D2*
X9059D1*
X15375D2*
X15719D1*
X16679D2*
X19250D1*
X21804D2*
X23125D1*
X7437Y22784D2*
X7996D1*
X22312D2*
X23129D1*
X7437Y22535D2*
X8243D1*
X14363D2*
X15051D1*
X22312D2*
X23129D1*
X14363Y22286D2*
X14817D1*
X20125D2*
X21336D1*
X13125Y22038D2*
X13664D1*
X14363D2*
X14750D1*
X8523Y21789D2*
X9473D1*
X13125D2*
X13664D1*
X14363D2*
X14750D1*
X7437Y21540D2*
X9473D1*
X13125D2*
X13676D1*
X14531D2*
X14692D1*
X14546Y21291D2*
X14695D1*
X9660Y21043D2*
X11360D1*
X14546D2*
X14695D1*
X6511Y20794D2*
X6696D1*
X9660D2*
X11555D1*
X14546D2*
X14695D1*
X4433Y20545D2*
X6450D1*
X9660D2*
X11797D1*
X12605D2*
X12938D1*
X14546D2*
X14710D1*
X15687D2*
X16211D1*
X4433Y20297D2*
X6200D1*
X9660D2*
X12317D1*
X14546D2*
X14710D1*
X15687D2*
X16211D1*
X17937D2*
X19149D1*
X20125D2*
X21336D1*
X22312D2*
X22641D1*
X23007D2*
X23133D1*
X4433Y20048D2*
X5950D1*
X10144D2*
X12211D1*
X14546D2*
X14710D1*
X17937D2*
X19149D1*
X20125D2*
X21336D1*
X22312D2*
X23133D1*
X4433Y19799D2*
X4825D1*
X10250D2*
X12254D1*
X14546D2*
X14710D1*
X17937D2*
X19149D1*
X20125D2*
X21336D1*
X22336D2*
X23137D1*
X4437Y19551D2*
X4825D1*
X10562D2*
X12555D1*
X14519D2*
X14711D1*
X17937D2*
X21356D1*
X22582D2*
X23137D1*
X4437Y19302D2*
X4825D1*
X10628D2*
X12938D1*
X17937D2*
X21539D1*
X22828D2*
X23137D1*
X4437Y19053D2*
X4825D1*
X10546D2*
X12938D1*
X16117D2*
X21836D1*
X22921D2*
X23137D1*
X4437Y18805D2*
X4825D1*
X10363D2*
X12012D1*
X15996D2*
X22028D1*
X22921D2*
X23137D1*
X4437Y18556D2*
X4875D1*
X10113D2*
X11750D1*
X15687D2*
X20766D1*
X4437Y18307D2*
X4825D1*
X9898D2*
X10637D1*
X15687D2*
X20766D1*
X4441Y18059D2*
X4879D1*
X6675D2*
X7364D1*
X9921D2*
X10524D1*
X15687D2*
X20766D1*
X4441Y17810D2*
X5090D1*
X6429D2*
X7629D1*
X7918D2*
X8164D1*
X14371D2*
X14817D1*
X15703D2*
X20766D1*
X4441Y17561D2*
X4875D1*
X6179D2*
X8164D1*
X15832D2*
X17157D1*
X19468D2*
X20766D1*
X4441Y17312D2*
X4825D1*
X6070D2*
X8032D1*
X19468D2*
X21047D1*
X4441Y17064D2*
X4875D1*
X6019D2*
X7782D1*
X19468D2*
X21047D1*
X4441Y16815D2*
X5086D1*
X5808D2*
X6926D1*
X9187D2*
X9473D1*
X19468D2*
X21047D1*
X4441Y16566D2*
X4879D1*
X6015D2*
X6926D1*
X9160D2*
X9727D1*
X15828D2*
X16012D1*
X19468D2*
X21047D1*
X4445Y16318D2*
X4825D1*
X6070D2*
X6926D1*
X9160D2*
X9727D1*
X12832D2*
X13895D1*
X15832D2*
X16262D1*
X19125D2*
X21938D1*
X22836D2*
X23145D1*
X4445Y16069D2*
X4875D1*
X6019D2*
X6926D1*
X9160D2*
X9727D1*
X12961D2*
X14145D1*
X15707D2*
X16508D1*
X19125D2*
X21891D1*
X22882D2*
X23145D1*
X4445Y15820D2*
X5078D1*
X5816D2*
X6926D1*
X9160D2*
X9727D1*
X12984D2*
X14395D1*
X15695D2*
X16758D1*
X19125D2*
X20985D1*
X22882D2*
X23145D1*
X4445Y15572D2*
X4883D1*
X6011D2*
X6926D1*
X9160D2*
X9500D1*
X12984D2*
X14641D1*
X15828D2*
X17543D1*
X19105D2*
X20985D1*
X22882D2*
X23145D1*
X4445Y15323D2*
X4825D1*
X6070D2*
X6926D1*
X14058D2*
X14688D1*
X15832D2*
X17543D1*
X19105D2*
X20985D1*
X22882D2*
X23149D1*
X4445Y15074D2*
X4871D1*
X6023D2*
X6926D1*
X14058D2*
X14809D1*
X15711D2*
X17543D1*
X19105D2*
X21793D1*
X22882D2*
X23149D1*
X4449Y14826D2*
X5071D1*
X5824D2*
X7086D1*
X14058D2*
X16524D1*
X17500D2*
X18289D1*
X19105D2*
X21778D1*
X22882D2*
X23149D1*
X4449Y14577D2*
X4883D1*
X14058D2*
X16524D1*
X19175D2*
X21778D1*
X22671D2*
X23149D1*
X4449Y14328D2*
X4825D1*
X14058D2*
X16524D1*
X19492D2*
X21047D1*
X22730D2*
X23149D1*
X4449Y14080D2*
X4871D1*
X10367D2*
X12430D1*
X14179D2*
X16524D1*
X19586D2*
X21047D1*
X22863D2*
X23149D1*
X4449Y13831D2*
X5063D1*
X10375D2*
X13196D1*
X19586D2*
X21047D1*
X22921D2*
X23153D1*
X4449Y13582D2*
X4887D1*
X10277D2*
X13430D1*
X17500D2*
X18575D1*
X19625D2*
X20766D1*
X4453Y13333D2*
X4825D1*
X7062D2*
X9411D1*
X9988D2*
X10664D1*
X12980D2*
X13680D1*
X19589D2*
X20766D1*
X4453Y13085D2*
X4868D1*
X7062D2*
X10664D1*
X12980D2*
X13942D1*
X19324D2*
X20766D1*
X4453Y12836D2*
X5059D1*
X5836D2*
X10664D1*
X12980D2*
X14676D1*
X20367D2*
X20766D1*
X4453Y12587D2*
X10664D1*
X12980D2*
X14676D1*
X20562D2*
X20766D1*
X4453Y12339D2*
X10664D1*
X13199D2*
X14676D1*
X17500D2*
X18692D1*
X20789D2*
X22000D1*
X22898D2*
X23157D1*
X4453Y12090D2*
X10723D1*
X13437D2*
X14676D1*
X17500D2*
X19813D1*
X20847D2*
X22000D1*
X22898D2*
X23157D1*
X4457Y11841D2*
X10723D1*
X13437D2*
X15371D1*
X17500D2*
X18692D1*
X21003D2*
X22000D1*
X22898D2*
X23157D1*
X4457Y11593D2*
X10723D1*
X13437D2*
X15637D1*
X17500D2*
X18692D1*
X21003D2*
X22000D1*
X22898D2*
X23157D1*
X5191Y11344D2*
X10723D1*
X13250D2*
X18692D1*
X21003D2*
X22000D1*
X22898D2*
X23157D1*
X7656Y11095D2*
X10723D1*
X13027D2*
X18692D1*
X21003D2*
X22000D1*
X22898D2*
X23157D1*
X7750Y10847D2*
X10723D1*
X12984D2*
X18692D1*
X21003D2*
X22000D1*
X22898D2*
X23161D1*
X7699Y10598D2*
X10723D1*
X12984D2*
X20000D1*
X20898D2*
X22000D1*
X22898D2*
X23161D1*
X7320Y10349D2*
X10723D1*
X12984D2*
X18610D1*
X20937D2*
X22000D1*
X22898D2*
X23161D1*
X7253Y10101D2*
X10395D1*
X12984D2*
X18610D1*
X20937D2*
X22000D1*
X22898D2*
X23161D1*
X7277Y9852D2*
X10071D1*
X13078D2*
X16328D1*
X17753D2*
X18610D1*
X20937D2*
X22000D1*
X22898D2*
X23161D1*
X7375Y9603D2*
X9993D1*
X13156D2*
X16328D1*
X17753D2*
X18610D1*
X20937D2*
X22000D1*
X22898D2*
X23161D1*
X7328Y9354D2*
X9746D1*
X13121D2*
X16328D1*
X17753D2*
X18610D1*
X20937D2*
X22000D1*
X22898D2*
X23164D1*
X7000Y9106D2*
X9629D1*
X12925D2*
X16328D1*
X17753D2*
X18610D1*
X20937D2*
X22000D1*
X22898D2*
X23164D1*
X6566Y8857D2*
X9575D1*
X12574D2*
X16328D1*
X17753D2*
X18610D1*
X20937D2*
X22000D1*
X22898D2*
X23164D1*
X6253Y8608D2*
X9493D1*
X12656D2*
X16328D1*
X17753D2*
X18610D1*
X20039D2*
X22000D1*
X22898D2*
X23164D1*
X6175Y8360D2*
X9528D1*
X12621D2*
X16328D1*
X17753D2*
X18610D1*
X20039D2*
X21875D1*
X22898D2*
X23164D1*
X6175Y8111D2*
X9625D1*
X10523D2*
X10715D1*
X11433D2*
X11715D1*
X12433D2*
X18610D1*
X20039D2*
X21625D1*
X22847D2*
X23164D1*
X6175Y7862D2*
X9633D1*
X10769D2*
X18610D1*
X20039D2*
X21379D1*
X22621D2*
X23168D1*
X6175Y7614D2*
X9774D1*
X19773D2*
X21129D1*
X22375D2*
X23168D1*
X5191Y7365D2*
X10024D1*
X19773D2*
X20879D1*
X22125D2*
X23168D1*
X5191Y7116D2*
X10274D1*
X21875D2*
X23168D1*
X4468Y6868D2*
X18875D1*
X21628D2*
X23168D1*
X4468Y6619D2*
X4871D1*
X6019D2*
X18875D1*
X21378D2*
X21563D1*
X22714D2*
X23168D1*
X6382Y6370D2*
X16407D1*
X18109D2*
X18297D1*
X6582Y6122D2*
X16407D1*
X18109D2*
X18297D1*
X20000D2*
X21000D1*
X6703Y5873D2*
X16407D1*
X18109D2*
X18297D1*
X20000D2*
X20883D1*
X6765Y5624D2*
X16407D1*
X18109D2*
X18297D1*
X20000D2*
X20821D1*
X6777Y5375D2*
X16407D1*
X18109D2*
X18297D1*
X20000D2*
X20809D1*
X6742Y5127D2*
X20844D1*
X6652Y4878D2*
X20930D1*
X6500Y4629D2*
X21082D1*
X22020Y13609D2*
X22052Y13615D1*
Y13650D1*
X21862Y13653D1*
X21074D1*
Y14577D1*
X21803D1*
X21802Y14962D1*
X21829Y15103D1*
X21428Y15106D1*
X21010D1*
Y15891D1*
X21915D1*
Y16265D1*
X21966D1*
X21962Y16403D1*
X21074D1*
Y17327D1*
X21803D1*
X21827Y17496D1*
X20792D1*
Y18734D1*
X22055D1*
X22052Y18861D1*
X21665Y19249D1*
X21569Y19298D1*
X21475Y19380D1*
X21406Y19484D1*
X21367Y19602D1*
X21362Y19974D1*
Y20413D1*
X20574Y20417D1*
X20493Y20413D1*
X20099D1*
X20098Y19706D1*
X19175D1*
Y20434D1*
X18155D1*
X18032Y20452D1*
X17913Y20510D1*
X17911Y19956D1*
Y19286D1*
X17180D1*
X17181Y19225D1*
X16218Y19229D1*
X16136Y19225D1*
X16086D1*
X16098Y19125D1*
X16082Y19001D1*
X16032Y18887D1*
X15954Y18789D1*
X15853Y18717D1*
X15736Y18674D1*
X15662Y18661D1*
Y18038D1*
X14123Y18037D1*
X14119Y17960D1*
X14288Y17866D1*
X14702Y17453D1*
X14711Y17551D1*
X14750Y17670D1*
X14814Y17777D1*
X14901Y17867D1*
X15005Y17936D1*
X15121Y17980D1*
X15245Y17997D1*
X15369Y17986D1*
X15488Y17949D1*
X15596Y17885D1*
X15686Y17800D1*
X15756Y17697D1*
X15801Y17580D1*
X15820Y17437D1*
X15806Y17313D1*
X15765Y17195D1*
X15699Y17089D1*
X15611Y17001D1*
X15509Y16936D1*
X15596Y16885D1*
X15686Y16800D1*
X15756Y16697D1*
X15801Y16580D1*
X15820Y16437D1*
X15806Y16313D1*
X15765Y16195D1*
X15699Y16089D1*
X15611Y16001D1*
X15509Y15936D1*
X15596Y15885D1*
X15686Y15800D1*
X15756Y15697D1*
X15801Y15580D1*
X15820Y15437D1*
X15806Y15313D1*
X15765Y15195D1*
X15699Y15089D1*
X15611Y15001D1*
X15506Y14934D1*
X15388Y14892D1*
X15265Y14877D1*
X15141Y14890D1*
X15022Y14930D1*
X14916Y14995D1*
X14827Y15082D1*
X14759Y15186D1*
X14716Y15303D1*
X14700Y15427D1*
X14709Y15532D1*
X13873Y16365D1*
X12883Y16364D1*
X12805Y16374D1*
X12806Y16248D1*
X12918Y16107D1*
X12954Y15984D1*
X12957Y15687D1*
X12955Y14761D1*
X13110Y14762D1*
Y15525D1*
X14034D1*
Y14196D1*
X14373Y13861D1*
X14891Y13859D1*
X15005Y13936D1*
X15121Y13980D1*
X15245Y13997D1*
X15369Y13986D1*
X15488Y13949D1*
X15565Y13903D1*
X15863Y13904D1*
X15862Y13963D1*
X16554D1*
X16550Y14356D1*
Y15025D1*
X17473D1*
Y13393D1*
X17391D1*
X17395Y13027D1*
X17473Y13025D1*
X17470Y12062D1*
X17473Y11981D1*
Y11393D1*
X16550D1*
Y11553D1*
X15822Y11551D1*
X15700Y11574D1*
X15593Y11645D1*
X15364Y11875D1*
X14699Y11877D1*
Y12997D1*
X14914D1*
X14885Y13015D1*
X14199D1*
X14076Y13033D1*
X13960Y13089D1*
X13812Y13227D1*
X13275Y13763D1*
X13198Y13871D1*
X13159Y13893D1*
X13110D1*
Y13991D1*
X12699D1*
X12576Y14012D1*
X12464Y14073D1*
X12299Y14234D1*
X12189Y14278D1*
X11689D1*
X11189D1*
X10689D1*
Y15596D1*
X10835D1*
X10650Y15780D1*
X10649Y14563D1*
X10625Y14441D1*
X10554Y14334D1*
X10336Y14115D1*
X10358Y13937D1*
X10346Y13813D1*
X10311Y13693D1*
X10254Y13582D1*
X10177Y13484D1*
X10083Y13402D1*
X9975Y13339D1*
X9857Y13298D1*
X9734Y13279D1*
X9609Y13285D1*
X9488Y13313D1*
X9374Y13364D1*
X9271Y13436D1*
X9185Y13526D1*
X9116Y13630D1*
X9069Y13746D1*
X9044Y13868D1*
X9043Y13993D1*
X9065Y14116D1*
X9110Y14232D1*
X9177Y14338D1*
X9271Y14436D1*
X9185Y14526D1*
X9116Y14630D1*
X9069Y14746D1*
X9044Y14868D1*
X9043Y14993D1*
X9036Y14963D1*
X9032Y14125D1*
X9036Y14043D1*
Y13456D1*
X8112D1*
Y15041D1*
X8037D1*
X8032Y14125D1*
X8036Y14043D1*
Y13456D1*
X7112D1*
Y15041D1*
X6951D1*
X6955Y16083D1*
X6951Y16164D1*
Y16831D1*
X7573D1*
X8186Y17442D1*
X8188Y18087D1*
X7943Y17842D1*
X7880Y17803D1*
X7807Y17784D1*
X7733Y17785D1*
X7661Y17807D1*
X7587Y17859D1*
X7295Y18147D1*
X7222Y18130D1*
X7148Y18133D1*
X7077Y18158D1*
X7011Y18206D1*
X6836Y18377D1*
X6812Y18255D1*
X6741Y18148D1*
X6031Y17438D1*
X6047Y17312D1*
X6034Y17188D1*
X5995Y17069D1*
X5933Y16961D1*
X5850Y16868D1*
X5778Y16815D1*
X5837Y16767D1*
X5923Y16677D1*
X5988Y16570D1*
X6030Y16453D1*
X6047Y16312D1*
X6034Y16188D1*
X5995Y16069D1*
X5933Y15961D1*
X5850Y15868D1*
X5778Y15815D1*
X5837Y15767D1*
X5923Y15677D1*
X5988Y15570D1*
X6030Y15453D1*
X6047Y15312D1*
X6034Y15188D1*
X5995Y15069D1*
X5933Y14961D1*
X5850Y14868D1*
X5778Y14815D1*
X5867Y14736D1*
X6574Y14734D1*
X6738Y14714D1*
X7036D1*
X7032Y13751D1*
X7036Y13669D1*
Y13082D1*
X6634D1*
X6594Y13041D1*
X6493Y12969D1*
X6370Y12932D1*
X6073Y12929D1*
X5905D1*
X5850Y12868D1*
X5750Y12794D1*
X5636Y12743D1*
X5514Y12716D1*
X5389Y12715D1*
X5267Y12740D1*
X5152Y12790D1*
X5051Y12862D1*
X4966Y12954D1*
X4903Y13061D1*
X4862Y13180D1*
X4848Y13303D1*
X4859Y13428D1*
X4896Y13547D1*
X4956Y13656D1*
X5038Y13750D1*
X5116Y13809D1*
X5051Y13862D1*
X4966Y13954D1*
X4903Y14061D1*
X4862Y14180D1*
X4848Y14303D1*
X4859Y14428D1*
X4896Y14547D1*
X4956Y14656D1*
X5038Y14750D1*
X5116Y14809D1*
X5051Y14862D1*
X4966Y14954D1*
X4903Y15061D1*
X4862Y15180D1*
X4848Y15303D1*
X4859Y15428D1*
X4896Y15547D1*
X4956Y15656D1*
X5038Y15750D1*
X5116Y15809D1*
X5051Y15862D1*
X4966Y15954D1*
X4903Y16061D1*
X4862Y16180D1*
X4848Y16303D1*
X4859Y16428D1*
X4896Y16547D1*
X4956Y16656D1*
X5038Y16750D1*
X5116Y16809D1*
X5051Y16862D1*
X4966Y16954D1*
X4903Y17061D1*
X4862Y17180D1*
X4848Y17303D1*
X4859Y17428D1*
X4896Y17547D1*
X4956Y17656D1*
X5038Y17750D1*
X5116Y17809D1*
X5051Y17862D1*
X4966Y17954D1*
X4903Y18061D1*
X4862Y18180D1*
X4848Y18303D1*
X4859Y18428D1*
X4896Y18547D1*
X4956Y18656D1*
X5005Y18712D1*
X4848D1*
Y19912D1*
X5836D1*
X6841Y20914D1*
X6661Y20911D1*
X6487D1*
X6486Y21037D1*
Y20712D1*
X5287D1*
Y20865D1*
X5189Y20794D1*
X5075Y20743D1*
X4953Y20716D1*
X4829Y20715D1*
X4706Y20740D1*
X4592Y20790D1*
X4490Y20862D1*
X4408Y20951D1*
X4431Y11491D1*
X4600Y11494D1*
X5167D1*
X5170Y11140D1*
X6151D1*
Y10409D1*
X6161Y10419D1*
X6169Y10629D1*
Y11302D1*
X7230D1*
Y11275D1*
X7321Y11274D1*
X7441Y11242D1*
X7549Y11179D1*
X7636Y11089D1*
X7696Y10980D1*
X7727Y10813D1*
X7710Y10689D1*
X7661Y10575D1*
X7584Y10477D1*
X7483Y10404D1*
X7366Y10360D1*
X7231Y10350D1*
X7230Y9880D1*
X7321Y9730D1*
X7352Y9563D1*
X7335Y9439D1*
X7286Y9324D1*
X7209Y9227D1*
X7108Y9154D1*
X6991Y9110D1*
X6863Y9099D1*
X6771Y8977D1*
X6670Y8904D1*
X6554Y8860D1*
X6430Y8848D1*
X6307Y8870D1*
X6226Y8909D1*
X6230Y8701D1*
Y8445D1*
X6151D1*
Y7460D1*
X5166D1*
X5167Y7106D1*
X4443D1*
X4444Y6272D1*
X4606Y6436D1*
X4812Y6577D1*
X5041Y6676D1*
X5285Y6731D1*
X5534Y6737D1*
X5780Y6697D1*
X6014Y6610D1*
X6228Y6480D1*
X6413Y6313D1*
X6562Y6113D1*
X6671Y5888D1*
X6735Y5647D1*
X6753Y5433D1*
X6729Y5185D1*
X6658Y4945D1*
X6543Y4724D1*
X6388Y4528D1*
X6289Y4435D1*
X7574Y4437D1*
X21289D1*
X21183Y4541D1*
X21031Y4738D1*
X20919Y4962D1*
X20851Y5202D1*
X20831Y5451D1*
X20858Y5699D1*
X20932Y5937D1*
X21050Y6157D1*
X21207Y6351D1*
X21399Y6511D1*
X21617Y6632D1*
X21854Y6709D1*
X22102Y6740D1*
X22351Y6723D1*
X22592Y6659D1*
X22817Y6550D1*
X23017Y6401D1*
X23185Y6216D1*
X23196Y6200D1*
X23168Y16468D1*
X23051Y16425D1*
X22926Y16415D1*
X22808Y16438D1*
X22809Y16269D1*
X22858Y16265D1*
X22854Y15480D1*
X22858Y15392D1*
Y14732D1*
X22643D1*
X22647Y14576D1*
X22706Y14577D1*
Y14229D1*
X22773Y14163D1*
X22847Y14063D1*
X22890Y13941D1*
X22897Y13740D1*
Y13611D1*
X23054Y13609D1*
Y12371D1*
X22871D1*
X22872Y8312D1*
X22853Y8189D1*
X22797Y8072D1*
X22659Y7925D1*
X21168Y6433D1*
X21068Y6359D1*
X20946Y6316D1*
X20744Y6309D1*
X19974D1*
X19975Y5302D1*
X18323D1*
Y6383D1*
X18905D1*
X18902Y6732D1*
Y6892D1*
X17074Y6890D1*
X10699D1*
X10576Y6908D1*
X10460Y6964D1*
X10312Y7102D1*
X9775Y7638D1*
X9701Y7738D1*
X9659Y7860D1*
X9652Y8062D1*
Y8191D1*
X9573Y8311D1*
X9530Y8428D1*
X9514Y8552D1*
X9526Y8676D1*
X9565Y8795D1*
X9653Y8927D1*
X9652Y9062D1*
X9670Y9185D1*
X9726Y9302D1*
X9864Y9449D1*
X10016Y9601D1*
X10026Y9676D1*
X10065Y9795D1*
X10129Y9902D1*
X10215Y9992D1*
X10319Y10061D1*
X10436Y10105D1*
X10559Y10122D1*
X10684Y10111D1*
X10747Y10091D1*
X10749Y11562D1*
Y12152D1*
X10689D1*
Y13470D1*
X11455Y13466D1*
X11564Y13470D1*
X11955Y13466D1*
X12064Y13470D1*
X12455Y13466D1*
X12564Y13470D1*
X12955D1*
Y12575D1*
X13116Y12416D1*
X13180Y12325D1*
X13322Y12274D1*
X13410D1*
Y11350D1*
X13227D1*
X13158Y11250D1*
X12962Y11054D1*
X12961Y9964D1*
X13001Y9925D1*
X13071Y9822D1*
X13116Y9705D1*
X13134Y9562D1*
X13120Y9438D1*
X13079Y9320D1*
X13013Y9214D1*
X12926Y9126D1*
X12820Y9059D1*
X12703Y9017D1*
X12579Y9002D1*
X12455Y9015D1*
X12400Y9033D1*
X12410Y9010D1*
X12501Y8925D1*
X12571Y8822D1*
X12616Y8705D1*
X12634Y8562D1*
X12620Y8438D1*
X12579Y8320D1*
X12513Y8214D1*
X12426Y8126D1*
X12320Y8059D1*
X12203Y8017D1*
X12079Y8002D1*
X11955Y8015D1*
X11837Y8055D1*
X11730Y8120D1*
X11641Y8207D1*
X11575Y8308D1*
X11513Y8214D1*
X11426Y8126D1*
X11320Y8059D1*
X11203Y8017D1*
X11079Y8002D1*
X10955Y8015D1*
X10837Y8055D1*
X10730Y8120D1*
X10641Y8207D1*
X10575Y8308D1*
X10494Y8195D1*
X10497Y8113D1*
X10873Y7736D1*
X18636Y7735D1*
Y8639D1*
X20012D1*
Y7735D1*
X19743D1*
X19746Y7308D1*
X19747Y7152D1*
X20695Y7154D1*
X22026Y8486D1*
X22027Y12371D1*
X20792D1*
Y13609D1*
X21952Y13608D1*
X21956Y13653D1*
X21743Y13657D1*
X21895Y13609D1*
X22020D1*
X16457Y6383D2*
X18084D1*
Y5302D1*
X16432D1*
Y6383D1*
X16457D1*
X15348Y23782D2*
X15345Y23206D1*
X15348Y23124D1*
Y22970D1*
X15734D1*
X15763Y23098D1*
X15821Y23208D1*
X15907Y23299D1*
X16014Y23363D1*
X16047Y23373D1*
X15944Y23423D1*
X15850Y23505D1*
X15781Y23609D1*
X15742Y23727D1*
X15740Y23777D1*
X15352Y23778D1*
X14426Y23206D2*
X14425Y24133D1*
X14337Y24126D1*
Y21762D1*
X14428Y21669D1*
X14498Y21566D1*
X14523Y21440D1*
Y19687D1*
X14499Y19565D1*
X14428Y19458D1*
X14365Y19394D1*
X14734Y19396D1*
X14737Y20081D1*
X14741Y20168D1*
X14737Y20250D1*
Y20722D1*
X14718Y20725D1*
Y21649D1*
X14776D1*
X14777Y22062D1*
X14795Y22185D1*
X14851Y22302D1*
X14989Y22449D1*
X15073Y22536D1*
X14425D1*
X14426Y23499D1*
X19944Y11962D2*
X19964D1*
X19805Y12124D1*
X19718Y12136D1*
X19096D1*
X18972Y12154D1*
X18856Y12210D1*
X18709Y12348D1*
X18491Y12557D1*
X18153Y12561D1*
X18072Y12557D1*
X17484D1*
Y13481D1*
X18501D1*
X18704Y13685D1*
X18707Y13769D1*
X18316Y13773D1*
X18233Y13769D1*
X17568D1*
Y14732D1*
X18320D1*
X18316Y14836D1*
X18292Y14732D1*
X18316D1*
X18209Y14832D1*
X17568D1*
Y15664D1*
X17469D1*
Y15707D1*
X17076Y15703D1*
X16952Y15722D1*
X16836Y15778D1*
X16688Y15915D1*
X16039Y16565D1*
X15946Y16612D1*
X15851Y16694D1*
X15782Y16797D1*
X15743Y16916D1*
X15737Y17040D1*
X15764Y17162D1*
X15823Y17272D1*
X15908Y17363D1*
X16015Y17427D1*
X16135Y17461D1*
X16259Y17462D1*
X16353Y17437D1*
X16433Y17495D1*
X16561Y17541D1*
X16763Y17548D1*
X17181D1*
X17183Y17745D1*
X18343Y17741D1*
X18361Y17745D1*
X19445D1*
Y16507D1*
X19101D1*
Y15664D1*
X19082D1*
X19078Y14832D1*
X19082Y14607D1*
X19161Y14571D1*
X19285Y14458D1*
X19341Y14434D1*
X19440Y14358D1*
X19513Y14257D1*
X19554Y14140D1*
X19561Y13938D1*
Y13715D1*
X19601Y13568D1*
X19586Y13399D1*
X19538Y13284D1*
X19460Y13187D1*
X19359Y13113D1*
X19305Y13092D1*
X19230Y13016D1*
X19346Y12980D1*
X19782Y12984D1*
X19902Y13018D1*
X20027Y13019D1*
X20147Y12987D1*
X20255Y12924D1*
X20342Y12835D1*
X20403Y12722D1*
X20698Y12426D1*
X20772Y12326D1*
X20814Y12204D1*
X20821Y11959D1*
X20979Y11962D1*
Y10723D1*
X20873D1*
X20872Y10421D1*
X20911Y10418D1*
X20907Y9456D1*
X20911Y9374D1*
Y8786D1*
X20012D1*
Y8641D1*
X18636D1*
Y9544D1*
X18887Y9546D1*
X18636D1*
Y10450D1*
X20012D1*
Y10423D1*
X20027Y10437D1*
Y10722D1*
X19819Y10727D1*
X19802Y10723D1*
X18717D1*
Y11962D1*
X19944D1*
X22898Y18734D2*
X23054D1*
Y17496D1*
X22863D1*
X22853Y17439D1*
X22795Y17321D1*
X22900Y17335D1*
X23025Y17332D1*
X23167Y17281D1*
X23159Y20378D1*
X23013Y20305D1*
X22891Y20279D1*
X22766Y20278D1*
X22644Y20303D1*
X22529Y20352D1*
X22404Y20451D1*
X22289Y20452D1*
X22286Y19937D1*
Y19823D1*
X22773Y19335D1*
X22847Y19235D1*
X22890Y19113D1*
X22897Y18912D1*
Y18736D1*
X9936Y24600D2*
X9782D1*
Y25104D1*
X9679Y25098D1*
X9630Y25106D1*
X9662Y24983D1*
X9647Y24814D1*
X9598Y24699D1*
X9521Y24601D1*
X9420Y24528D1*
X9304Y24484D1*
X9179Y24473D1*
X9057Y24494D1*
X8944Y24548D1*
X8850Y24630D1*
X8781Y24734D1*
X8742Y24852D1*
X8736Y24976D1*
X8763Y25098D1*
X8821Y25208D1*
X8878Y25268D1*
X8876Y25693D1*
X8868Y25725D1*
X8372D1*
X8428Y25669D1*
X8498Y25566D1*
X8523Y25440D1*
Y24944D1*
X9939Y23530D1*
Y24603D1*
X12157Y25524D2*
X12856D1*
X12855Y25825D1*
X12790Y25779D1*
X12674Y25736D1*
X12549Y25726D1*
X12427Y25749D1*
X12347Y25789D1*
X12350Y25725D1*
X12065Y25721D1*
X11868Y25523D1*
X12326D1*
X16237Y26024D2*
X16241Y26043D1*
X16199Y26024D1*
X16235D1*
X16237Y26566D1*
X16218Y26604D1*
X15726Y26600D1*
X15720Y26581D1*
X15723Y26027D1*
X15743Y26020D1*
X16199Y26024D1*
X13146Y23149D2*
X13600D1*
Y22225D1*
X13099D1*
Y21361D1*
X13818Y21364D1*
X13784Y21397D1*
X13714Y21500D1*
X13689Y21626D1*
Y26626D1*
X13713Y26747D1*
X13784Y26855D1*
X13985Y27056D1*
X14020Y27232D1*
X14081Y27341D1*
X14169Y27429D1*
X14277Y27491D1*
X14398Y27521D1*
X14523Y27518D1*
X14631Y27485D1*
X14797Y27484D1*
X14800Y27543D1*
X15723D1*
Y27524D1*
X16511Y27520D1*
X16593Y27524D1*
X17911Y27525D1*
Y26274D1*
X18016Y26308D1*
X18217Y26315D1*
X19174D1*
X19175Y27043D1*
X20098D1*
Y26339D1*
X20868Y26336D1*
X21360D1*
X21366Y26356D1*
X21362Y27012D1*
X21361Y27101D1*
X21388Y27223D1*
X21446Y27333D1*
X21532Y27424D1*
X21615Y27474D1*
X21443Y27561D1*
X21241Y27707D1*
X21134Y27815D1*
X14697Y27816D1*
X14612Y27851D1*
X13710Y28753D1*
X13110Y28752D1*
X13067Y28694D1*
X12401Y28028D1*
X12404Y27657D1*
X12778Y27659D1*
Y26715D1*
X11713D1*
X11645Y26647D1*
X11681Y26645D1*
X12262Y26649D1*
X12350D1*
Y26590D1*
X12402Y26616D1*
X12523Y26646D1*
X12648Y26643D1*
X12767Y26607D1*
X12856Y26550D1*
X12855Y27001D1*
X12878Y27123D1*
X12956Y27244D1*
X13080Y27368D1*
X13108Y27507D1*
X13166Y27617D1*
X13252Y27707D1*
X13358Y27772D1*
X13478Y27806D1*
X13603Y27807D1*
X13723Y27775D1*
X13831Y27712D1*
X13918Y27622D1*
X13978Y27513D1*
X14009Y27346D1*
X13992Y27222D1*
X13943Y27108D1*
X13866Y27010D1*
X13765Y26937D1*
X13648Y26893D1*
X13567Y26885D1*
X13543Y26751D1*
Y23688D1*
X13520Y23566D1*
X13442Y23445D1*
X13147Y23150D1*
X16239Y20706D2*
X16237Y20725D1*
X15659D1*
X15661Y20146D1*
X16240Y20149D1*
X16237Y20728D1*
X9131Y16083D2*
X9134Y15833D1*
Y15274D1*
X9177Y15338D1*
X9262Y15429D1*
X9362Y15503D1*
X9475Y15556D1*
X9596Y15587D1*
X9748Y15592D1*
X9751Y16563D1*
X9770Y16673D1*
X9771Y16740D1*
X9498D1*
Y17150D1*
X9132Y16787D1*
X9134Y15789D1*
X9130D1*
X23148Y25060D2*
X23013Y24993D1*
X22891Y24966D1*
X22825D1*
X22542Y24683D1*
X22442Y24608D1*
X22318Y24566D1*
X22286Y24543D1*
Y23831D1*
X21788D1*
X21772Y23688D1*
X21723Y23574D1*
X21646Y23476D1*
X21545Y23403D1*
X21476Y23377D1*
X21611Y23303D1*
X21698Y23214D1*
X21758Y23104D1*
X21789Y22937D1*
X21786Y22918D1*
X22286D1*
Y22474D1*
X23150D1*
Y23812D1*
X23146Y25058D1*
X6484Y26001D2*
Y25587D1*
X5966Y25583D1*
X5838Y25578D1*
X5734Y25587D1*
X5285D1*
Y25740D1*
X5187Y25669D1*
X5073Y25618D1*
X4951Y25591D1*
X4827Y25590D1*
X4704Y25615D1*
X4590Y25665D1*
X4488Y25737D1*
X4394Y25846D1*
X4397Y24905D1*
X4477Y25000D1*
X4577Y25075D1*
X4690Y25128D1*
X4811Y25157D1*
X4936Y25160D1*
X5059Y25136D1*
X5174Y25088D1*
X5285Y25009D1*
X5287Y25162D1*
X5955D1*
X6088Y25298D1*
X6188Y25372D1*
X6310Y25415D1*
X6484Y25422D1*
X6487Y25611D1*
Y26006D1*
X6486Y24501D2*
Y23962D1*
X5287D1*
Y24115D1*
X5189Y24044D1*
X5075Y23993D1*
X4953Y23966D1*
X4829Y23965D1*
X4706Y23990D1*
X4592Y24040D1*
X4490Y24112D1*
X4400Y24214D1*
X4401Y23288D1*
X4477Y23375D1*
X4577Y23450D1*
X4690Y23503D1*
X4811Y23532D1*
X4936Y23535D1*
X5059Y23511D1*
X5174Y23463D1*
X5285Y23384D1*
X5287Y23537D1*
X5955D1*
X6213Y23798D1*
X6313Y23872D1*
X6437Y23915D1*
X6487Y23924D1*
Y24503D1*
X8244Y27659D2*
X8490D1*
X8493Y28406D1*
X8331Y28569D1*
X8259Y28675D1*
X8239Y28736D1*
X8138Y28752D1*
X8032D1*
X8036Y28356D1*
X8032Y27893D1*
X8036Y27812D1*
Y27224D1*
X7641D1*
X7589Y27083D1*
X7512Y26985D1*
X7407Y26911D1*
X7411Y26688D1*
X8279Y25818D1*
X8280Y25932D1*
X8227Y25994D1*
X8177Y26108D1*
X8168Y26312D1*
Y26714D1*
X8119Y26715D1*
Y27659D1*
X8244D1*
X20530Y24274D2*
X21362Y24281D1*
Y24535D1*
X20574Y24538D1*
X20099D1*
X20095Y24500D1*
X20098Y24274D1*
X20699Y24270D1*
X14838Y25100D2*
X14780D1*
Y26024D1*
X14800Y26025D1*
Y26639D1*
X14633Y26640D1*
X14549Y26611D1*
X14452Y26603D1*
X14339Y26493D1*
X14337Y24126D1*
X14426Y24168D1*
X14423Y24226D1*
X14450Y24348D1*
X14509Y24458D1*
X14595Y24549D1*
X14701Y24613D1*
X14840Y24647D1*
X14839Y25097D1*
X19227Y23831D2*
X19175D1*
Y23850D1*
X19082Y23846D1*
Y23778D1*
X18316Y23782D1*
X18207Y23778D1*
X17816Y23782D1*
X17707Y23778D1*
X17316Y23782D1*
X17207Y23778D1*
X16816Y23782D1*
X16664Y23778D1*
X16647Y23688D1*
X16598Y23574D1*
X16521Y23476D1*
X16420Y23403D1*
X16351Y23377D1*
X16486Y23303D1*
X16573Y23214D1*
X16633Y23104D1*
X16662Y22970D1*
X17082Y22966D1*
X17166Y22970D1*
X18082Y22966D1*
X18191Y22970D1*
X18582Y22966D1*
X18691Y22970D1*
X19082D1*
Y22895D1*
X19175Y22918D1*
X19226D1*
X19289Y23051D1*
X19338Y23111D1*
X19463Y23236D1*
X19557Y23306D1*
X19687Y23353D1*
X19697Y23395D1*
X19584Y23429D1*
X19463Y23513D1*
X19338Y23638D1*
X19260Y23746D1*
X21270Y22475D2*
X20405Y22479D1*
X20324Y22475D1*
X20101D1*
X20098Y22214D1*
X20868Y22211D1*
X21360D1*
X21362Y22474D1*
X21285Y22476D1*
X7409Y22543D2*
X7411Y22386D1*
X8187D1*
X8302Y22498D1*
X7763Y23040D1*
X7628Y23175D1*
X7414Y23176D1*
X7411Y22987D1*
Y22387D1*
Y21735D2*
X7407Y21581D1*
X7411Y21499D1*
Y21364D1*
X9502D1*
X9498Y21990D1*
X8711Y21988D1*
X8553Y21833D1*
X8450Y21764D1*
X8324Y21738D1*
X7414D1*
X7411Y21574D1*
X7409Y23981D2*
X7410Y23849D1*
X7449Y23823D1*
X7762D1*
X7884Y23800D1*
X7991Y23729D1*
X8833Y22886D1*
X9226D1*
X7500Y24616D1*
X7442Y24674D1*
X7411Y24662D1*
Y23849D1*
Y25770D2*
Y25323D1*
X7574D1*
X7696Y25300D1*
X7803Y25229D1*
X7878Y25154D1*
X7875Y25308D1*
X7790Y25241D1*
X7803Y25229D1*
X7873Y25307D1*
X7409Y25771D1*
X16378Y9997D2*
X17729D1*
Y8188D1*
X16353D1*
Y9997D1*
X16378D1*
X9901Y17900D2*
X10146Y17896D1*
X10392Y17900D1*
X10540Y17896D1*
X10555Y17900D1*
X10548Y18041D1*
X10575Y18163D1*
X10634Y18273D1*
X10720Y18363D1*
X10826Y18428D1*
X10946Y18462D1*
X11071Y18463D1*
X11191Y18431D1*
X11298Y18368D1*
X11385Y18278D1*
X11429Y18200D1*
X11651Y18431D1*
X11973Y18752D1*
X12074Y18825D1*
X12197Y18861D1*
X12493Y18864D1*
X12835D1*
X12961Y18842D1*
X12963Y19245D1*
Y19497D1*
X12867Y19477D1*
X12743Y19489D1*
X12627Y19541D1*
X12557Y19557D1*
X12444Y19611D1*
X12350Y19692D1*
X12281Y19796D1*
X12242Y19914D1*
X12236Y20039D1*
X12263Y20160D1*
X12321Y20271D1*
X12407Y20361D1*
X12514Y20426D1*
X12633Y20460D1*
X12758Y20461D1*
X12878Y20428D1*
X12962Y20379D1*
X12967Y20577D1*
X12963Y20823D1*
Y20931D1*
X12900Y20856D1*
X12799Y20783D1*
X12655Y20736D1*
X12648Y20690D1*
X12599Y20576D1*
X12522Y20478D1*
X12421Y20405D1*
X12304Y20361D1*
X12180Y20349D1*
X12058Y20371D1*
X11945Y20425D1*
X11851Y20507D1*
X11782Y20610D1*
X11743Y20733D1*
X11683Y20746D1*
X11570Y20800D1*
X11476Y20882D1*
X11407Y20985D1*
X11368Y21104D1*
X11363Y21232D1*
X11249Y21228D1*
X10482Y21232D1*
X10237Y21228D1*
X10089Y21232D1*
X9843Y21228D1*
X9695Y21232D1*
X9634Y21228D1*
X9630Y20520D1*
X9634Y20274D1*
Y20196D1*
X9697Y20211D1*
X9821Y20212D1*
X9942Y20180D1*
X10049Y20117D1*
X10136Y20028D1*
X10196Y19919D1*
X10226Y19770D1*
X10317Y19743D1*
X10424Y19680D1*
X10511Y19590D1*
X10571Y19481D1*
X10602Y19314D1*
X10586Y19190D1*
X10537Y19075D1*
X10450Y18971D1*
X10366Y18835D1*
X9981Y18449D1*
X9890Y18385D1*
X9858Y18343D1*
X9891Y18254D1*
X9898Y18187D1*
Y17902D1*
X10343Y17900D1*
X10536D1*
X11359Y21228D2*
X11270Y21232D1*
X11073Y21228D1*
X10679D1*
X10286D1*
X9892D1*
X9634D1*
X9630Y20716D1*
X9634Y20471D1*
X9630Y20323D1*
X9634Y20202D1*
X11022Y27064D2*
X10973Y26949D1*
X10896Y26851D1*
X11045Y27018D1*
X11244Y27219D1*
Y27659D1*
X11615D1*
X11618Y28564D1*
X11965D1*
X12152Y28750D1*
X11625Y28752D1*
X11037Y28164D1*
X11039Y27187D1*
X11022Y27064D1*
X10973Y26949D1*
X10896Y26851D1*
X10795Y26778D1*
X10679Y26734D1*
X10554Y26723D1*
X10432Y26744D1*
X10319Y26798D1*
X10225Y26880D1*
X10156Y26984D1*
X10117Y27102D1*
X10112Y27411D1*
X10116Y28124D1*
X10112Y28206D1*
Y28752D1*
X9118D1*
X9200Y28637D1*
X9220Y28577D1*
X9243Y28564D1*
X9279D1*
Y27657D1*
X9653Y27659D1*
Y26715D1*
X8867Y26716D1*
X8855Y26652D1*
X9243Y26649D1*
X9912D1*
Y26637D1*
X9961Y26646D1*
X10085Y26643D1*
X10205Y26607D1*
X10310Y26540D1*
X10393Y26447D1*
X10449Y26336D1*
X10474Y26187D1*
X10457Y26064D1*
X10407Y25949D1*
X10356Y25885D1*
X10719Y25886D1*
X10718Y26649D1*
X10854D1*
X10880Y26813D1*
X10896Y26851D1*
X10795Y26778D1*
X10679Y26734D1*
X10554Y26723D1*
X10432Y26744D1*
X10319Y26798D1*
X10225Y26880D1*
X10156Y26984D1*
X10117Y27102D1*
X10112Y27230D1*
X21372Y13609D2*
D24*
Y12371D1*
X20793Y12990D2*
X21372D1*
X21555Y14576D2*
Y13653D1*
X21074Y14115D2*
X21555D1*
X17258Y6383D2*
Y5302D1*
X16432Y5843D2*
X18083D1*
X14887Y23018D2*
Y22537D1*
X14425Y23018D2*
X15348D1*
X19297Y11961D2*
Y10724D1*
X18717Y11343D2*
X19297D1*
X20449Y9268D2*
Y8787D1*
Y9268D2*
X20910D1*
X21372Y18734D2*
Y17496D1*
X20793Y18115D2*
X21372D1*
X21555Y17326D2*
Y16403D1*
X21074Y16865D2*
X21555D1*
X17966Y13480D2*
Y12557D1*
X17485Y13019D2*
X17966D1*
X18620Y16126D2*
X19101D1*
X18865Y17745D2*
Y17126D1*
X19445D1*
X15181Y18500D2*
Y18038D1*
Y18500D2*
X15662D1*
X11844Y25523D2*
Y25062D1*
X7788Y18339D2*
Y17782D1*
X7170Y18783D2*
Y18130D1*
X13118Y23148D2*
Y22226D1*
Y22687D2*
X13599D1*
X17012Y15025D2*
Y14544D1*
X16550D2*
X17473D1*
X13572Y15525D2*
Y15044D1*
X13111D2*
X14033D1*
X5699Y8788D2*
X6229D1*
X5611Y11139D2*
Y10560D1*
X6151D1*
X5611Y8040D2*
Y7461D1*
Y8040D2*
X6151D1*
X4646Y11494D2*
Y10777D1*
Y7824D2*
Y7107D1*
X12385Y27658D2*
Y26716D1*
Y27187D2*
X12777D1*
X9260Y27658D2*
Y26716D1*
Y27187D2*
X9652D1*
X19637Y27043D2*
Y26562D1*
X19175D2*
X20098D1*
X7574Y13937D2*
Y13456D1*
X7113Y13937D2*
X8035D1*
X17449Y27525D2*
Y27044D1*
X17910D1*
X21824Y24312D2*
Y23831D1*
X21363Y24312D2*
X22285D1*
X8574Y13937D2*
Y13456D1*
X8113Y13937D2*
X9035D1*
X19637Y20187D2*
Y19706D1*
X19175Y20187D2*
X20098D1*
X17449Y19768D2*
Y19287D1*
Y19768D2*
X17910D1*
X21824Y22918D2*
Y22437D1*
X21363D2*
X22285D1*
X6949Y21393D2*
Y20912D1*
X6488Y21393D2*
X7410D1*
X6949Y22830D2*
X7410D1*
X6488Y24330D2*
X7410D1*
X6488Y25768D2*
X7410D1*
X19324Y9544D2*
Y8641D1*
X18636Y9093D2*
X19324D1*
X17041Y9997D2*
Y8188D1*
X16353Y9093D2*
X17728D1*
X21481Y15891D2*
Y15106D1*
X21010Y15499D2*
X21481D1*
X18325Y14732D2*
Y13770D1*
X17199Y22969D2*
Y22311D1*
X12963Y18875D2*
X13543D1*
X12963Y19269D2*
X13543D1*
X11200Y21808D2*
Y21229D1*
X11072Y14937D2*
Y14279D1*
X10690Y14937D2*
X11072D1*
D26*
X22474Y12990D3*
X21372D3*
D27*
X22224Y14115D3*
X21555D3*
D28*
X19149Y5843D3*
X17258D3*
D29*
X14887Y23687D3*
Y23018D3*
D26*
X20399Y11343D3*
X19297D3*
D29*
X20449Y9937D3*
Y9268D3*
D26*
X22474Y18115D3*
X21372D3*
D27*
X22224Y16865D3*
X21555D3*
X18635Y13019D3*
X17966D3*
X17951Y16126D3*
X18620D3*
D26*
X17763Y17126D3*
X18865D3*
D27*
X12325Y16313D3*
X11656D3*
X14512Y18500D3*
X15181D3*
X10264Y25062D3*
X10933D3*
X12514D3*
X11844D3*
G36*
X8248Y18520D2*
X7969Y18798D1*
X8276Y19104D1*
X8554Y18826D1*
X8248Y18520D1*
G37*
G36*
X7774Y18046D2*
X7496Y18325D1*
X7802Y18631D1*
X8081Y18353D1*
X7774Y18046D1*
G37*
G36*
X7727Y18922D2*
X7309Y19340D1*
X7671Y19702D1*
X8089Y19284D1*
X7727Y18922D1*
G37*
G36*
X7198Y18393D2*
X6780Y18811D1*
X7142Y19173D1*
X7560Y18755D1*
X7198Y18393D1*
G37*
D29*
X16699Y25562D3*
Y26231D3*
D27*
X12449Y22687D3*
X13118D3*
D29*
X15262Y27062D3*
Y26393D3*
X16699Y21187D3*
Y20518D3*
X15199Y19687D3*
Y20356D3*
X17012Y13875D3*
Y14544D3*
X13572Y14375D3*
Y15044D3*
D30*
X14824Y38812D3*
D31*
X13883D3*
X12942D3*
D30*
X9699D3*
D31*
X8758D3*
X7817D3*
D32*
X7512Y15562D3*
Y16310D3*
X8574Y15562D3*
Y16310D3*
D33*
X17262Y37000D3*
X18207Y35881D3*
X17262Y32062D3*
X18207Y30944D3*
D34*
X18699Y40937D3*
X15392D3*
X21699Y31250D3*
Y34557D3*
X11949Y40937D3*
X8642D3*
D35*
X22824Y26562D3*
D36*
Y25562D3*
Y24562D3*
D35*
X5447Y19312D3*
D36*
Y18312D3*
Y17312D3*
Y16312D3*
Y15312D3*
Y14312D3*
Y13312D3*
Y12312D3*
D35*
X22824Y21874D3*
D36*
Y20874D3*
Y19874D3*
D35*
X5885Y26187D3*
D36*
X4885D3*
D17*
X10074Y8562D3*
X11074D3*
X12074D3*
X13074D3*
X10574Y9562D3*
X11574D3*
X12574D3*
X13574D3*
D37*
X9572Y6062D3*
X14072D3*
D38*
X8722Y4861D3*
X14923D3*
D35*
X5887Y24562D3*
D36*
X4887D3*
D35*
X5887Y22937D3*
D36*
X4887D3*
D35*
X5887Y21312D3*
D36*
X4887D3*
D39*
X6699Y10250D3*
Y10841D3*
D40*
X5699Y9812D3*
Y9556D3*
Y9300D3*
Y9044D3*
Y8788D3*
D41*
X5611Y10560D3*
Y8040D3*
D42*
X4646Y10777D3*
Y7824D3*
D43*
Y9773D3*
Y8828D3*
D45*
X11637Y27187D3*
X12385D3*
X12011Y28093D3*
X8512Y27187D3*
X9260D3*
X8886Y28093D3*
D46*
X11449Y35187D3*
Y34085D3*
D29*
X10574Y28312D3*
Y27643D3*
D31*
X21699Y38937D3*
X20990Y36969D3*
D27*
X11199Y26187D3*
X11868D3*
D46*
X6199Y35187D3*
Y34085D3*
D29*
X7574Y28375D3*
Y27705D3*
D27*
X8762Y26187D3*
X9431D3*
X16699Y27062D3*
X16030D3*
D29*
X19637Y26562D3*
Y25893D3*
X21824Y25875D3*
Y26544D3*
D27*
X20387Y25875D3*
X21056D3*
X20887Y23812D3*
X20217D3*
X20387Y25000D3*
X21056D3*
D29*
X7574Y13937D3*
Y14606D3*
D27*
X15262Y25562D3*
X15931D3*
D29*
X17449Y26374D3*
Y27044D3*
X21824Y24312D3*
Y24981D3*
X19637Y24312D3*
Y24981D3*
X8574Y13937D3*
Y14606D3*
D27*
X16699Y19687D3*
X16030D3*
D29*
X19637Y20187D3*
Y20856D3*
X21824Y20875D3*
Y20205D3*
X16324Y12812D3*
Y13481D3*
X6574Y13563D3*
Y14232D3*
D27*
X20387Y20875D3*
X21056D3*
D29*
X17012Y11875D3*
Y12544D3*
D27*
X20887Y22937D3*
X20217D3*
X20387Y21749D3*
X21056D3*
X15199Y21187D3*
X15868D3*
D29*
X17449Y20437D3*
Y19768D3*
X21824Y22437D3*
Y21768D3*
X19637Y22437D3*
Y21768D3*
D27*
X12260Y11812D3*
X12929D3*
D29*
X6949Y22062D3*
Y21393D3*
Y23500D3*
Y22830D3*
Y25000D3*
Y24330D3*
Y26437D3*
Y25768D3*
D18*
X12574Y26187D3*
X10012D3*
X22951Y16876D3*
X16951Y16626D3*
X14449Y27062D3*
X15637Y19125D3*
D47*
X11824Y29437D3*
D48*
X12824D3*
X13824D3*
Y32437D3*
X12824D3*
X11824D3*
D47*
X7574Y29437D3*
D48*
X8574D3*
X9574D3*
Y32437D3*
X8574D3*
X7574D3*
D49*
X19324Y8187D3*
Y9093D3*
Y9998D3*
D50*
X17041Y9093D3*
D51*
X22387Y15125D3*
Y15873D3*
X21481Y15499D3*
D52*
X17951Y14251D3*
X18325D3*
X18699D3*
Y15314D3*
X17951D3*
D47*
X15260Y12437D3*
D48*
Y13437D3*
Y14437D3*
Y15437D3*
Y16437D3*
Y17437D3*
D53*
X18699Y24437D3*
X18199D3*
X17699D3*
X17199D3*
X16699D3*
X16199D3*
X15699D3*
Y22311D3*
X16199D3*
X16699D3*
X17199D3*
X17699D3*
X18199D3*
X18699D3*
D54*
X9822Y17320D3*
X10019D3*
X10216D3*
X10413D3*
X10610D3*
X10806D3*
X11003D3*
X11200D3*
X11397D3*
X11594D3*
X11791D3*
X11988D3*
X12184D3*
X12381D3*
X12578D3*
X12775D3*
D55*
X13543Y18088D3*
Y18284D3*
Y18481D3*
Y18678D3*
Y18875D3*
Y19072D3*
Y19269D3*
Y19466D3*
Y19662D3*
Y19859D3*
Y20056D3*
Y20253D3*
Y20450D3*
Y20647D3*
Y20844D3*
Y21040D3*
D54*
X12775Y21808D3*
X12578D3*
X12381D3*
X12184D3*
X11988D3*
X11791D3*
X11594D3*
X11397D3*
X11200D3*
X11003D3*
X10806D3*
X10610D3*
X10413D3*
X10216D3*
X10019D3*
X9822D3*
D55*
X9054Y21040D3*
Y20844D3*
Y20647D3*
Y20450D3*
Y20253D3*
Y20056D3*
Y19859D3*
Y19662D3*
Y19466D3*
Y19269D3*
Y19072D3*
Y18875D3*
Y18678D3*
Y18481D3*
Y18284D3*
Y18088D3*
D22*
X9699Y12937D3*
Y13937D3*
Y14937D3*
D53*
X12572D3*
X12072D3*
X11572D3*
X11072D3*
Y12811D3*
X11572D3*
X12072D3*
X12572D3*
D56*
X12199Y23937D3*
X10578D3*
M02*
