G04 DipTrace 2.4.0.2*
%INTemperatureController.GTS*%
%MOIN*%
%ADD17C,0.0591*%
%ADD59C,0.1181*%
%ADD60C,0.0433*%
%ADD65C,0.063*%
%ADD69R,0.0787X0.0984*%
%ADD71C,0.0827*%
%ADD73R,0.0669X0.0157*%
%ADD75R,0.0157X0.0669*%
%ADD77R,0.0276X0.0827*%
%ADD79R,0.0276X0.0472*%
%ADD81R,0.0453X0.0295*%
%ADD83R,0.0886X0.1319*%
%ADD85R,0.0886X0.0413*%
%ADD87C,0.063*%
%ADD89R,0.063X0.063*%
%ADD91R,0.1102X0.0669*%
%ADD93R,0.0295X0.0453*%
%ADD95R,0.0787X0.0709*%
%ADD97R,0.0551X0.0945*%
%ADD99R,0.0591X0.0669*%
%ADD101R,0.0571X0.0197*%
%ADD103R,0.0571X0.0433*%
%ADD105C,0.1024*%
%ADD107C,0.1614*%
%ADD110C,0.0709*%
%ADD111R,0.0709X0.0709*%
%ADD112C,0.1417*%
%ADD114C,0.122*%
%ADD116R,0.063X0.0551*%
%ADD118C,0.0827*%
%ADD120R,0.0827X0.0827*%
%ADD122R,0.0433X0.0472*%
%ADD124R,0.1161X0.0591*%
%ADD126R,0.0472X0.0433*%
%ADD128R,0.0669X0.0748*%
%FSLAX44Y44*%
G04*
G70*
G90*
G75*
G01*
%LNTopMask*%
%LPD*%
D128*
X22474Y12990D3*
X21372D3*
D126*
X22224Y14115D3*
X21555D3*
D124*
X19149Y5843D3*
X17258D3*
D122*
X14887Y23687D3*
Y23018D3*
D128*
X20399Y11343D3*
X19297D3*
D122*
X20449Y9937D3*
Y9268D3*
D128*
X22474Y18115D3*
X21372D3*
D126*
X22224Y16865D3*
X21555D3*
X18635Y13019D3*
X17966D3*
X17951Y16126D3*
X18620D3*
D128*
X17763Y17126D3*
X18865D3*
D126*
X12325Y16313D3*
X11656D3*
X14512Y18500D3*
X15181D3*
X10264Y25062D3*
X10933D3*
X12514D3*
X11844D3*
G36*
X8248Y18492D2*
X7941Y18798D1*
X8276Y19132D1*
X8582Y18826D1*
X8248Y18492D1*
G37*
G36*
X7774Y18019D2*
X7468Y18325D1*
X7802Y18659D1*
X8109Y18353D1*
X7774Y18019D1*
G37*
G36*
X7727Y18894D2*
X7282Y19340D1*
X7671Y19730D1*
X8117Y19284D1*
X7727Y18894D1*
G37*
G36*
X7198Y18365D2*
X6753Y18811D1*
X7142Y19201D1*
X7588Y18755D1*
X7198Y18365D1*
G37*
D122*
X16699Y25562D3*
Y26231D3*
D126*
X12449Y22687D3*
X13118D3*
D122*
X15262Y27062D3*
Y26393D3*
X16699Y21187D3*
Y20518D3*
X15199Y19687D3*
Y20356D3*
X17012Y13875D3*
Y14544D3*
X13572Y14375D3*
Y15044D3*
D120*
X14824Y38812D3*
D118*
X13883D3*
X12942D3*
D59*
X13883Y34875D3*
D120*
X9699Y38812D3*
D118*
X8758D3*
X7817D3*
D59*
X8758Y34874D3*
D116*
X7512Y15562D3*
Y16310D3*
X8574Y15562D3*
Y16310D3*
D114*
X17262Y37000D3*
X18207Y35881D3*
X17262Y32062D3*
X18207Y30944D3*
D59*
X22107Y41811D3*
X5445D3*
X22138Y5433D3*
X5445D3*
X22107Y28687D3*
X5445Y28625D3*
D112*
X18699Y40937D3*
X15392D3*
X21699Y31250D3*
Y34557D3*
X11949Y40937D3*
X8642D3*
D111*
X22824Y26562D3*
D110*
Y25562D3*
Y24562D3*
D111*
X5447Y19312D3*
D110*
Y18312D3*
Y17312D3*
Y16312D3*
Y15312D3*
Y14312D3*
Y13312D3*
Y12312D3*
D111*
X22824Y21874D3*
D110*
Y20874D3*
Y19874D3*
D111*
X5885Y26187D3*
D110*
X4885D3*
D65*
X10074Y8562D3*
X11074D3*
X12074D3*
X13074D3*
X10574Y9562D3*
X11574D3*
X12574D3*
X13574D3*
D107*
X9572Y6062D3*
X14072D3*
D105*
X8722Y4861D3*
X14923D3*
D111*
X5887Y24562D3*
D110*
X4887D3*
D111*
X5887Y22937D3*
D110*
X4887D3*
D111*
X5887Y21312D3*
D110*
X4887D3*
D103*
X6699Y10250D3*
Y10841D3*
D101*
X5699Y9812D3*
Y9556D3*
Y9300D3*
Y9044D3*
Y8788D3*
D99*
X5611Y10560D3*
Y8040D3*
D97*
X4646Y10777D3*
Y7824D3*
D95*
Y9773D3*
Y8828D3*
D93*
X11637Y27187D3*
X12385D3*
X12011Y28093D3*
X8512Y27187D3*
X9260D3*
X8886Y28093D3*
D91*
X11449Y35187D3*
Y34085D3*
D122*
X10574Y28312D3*
Y27643D3*
D118*
X21699Y38937D3*
X20990Y36969D3*
D126*
X11199Y26187D3*
X11868D3*
D91*
X6199Y35187D3*
Y34085D3*
D122*
X7574Y28375D3*
Y27705D3*
D126*
X8762Y26187D3*
X9431D3*
X16699Y27062D3*
X16030D3*
D122*
X19637Y26562D3*
Y25893D3*
X21824Y25875D3*
Y26544D3*
D126*
X20387Y25875D3*
X21056D3*
X20887Y23812D3*
X20217D3*
X20387Y25000D3*
X21056D3*
D122*
X7574Y13937D3*
Y14606D3*
D126*
X15262Y25562D3*
X15931D3*
D122*
X17449Y26374D3*
Y27044D3*
X21824Y24312D3*
Y24981D3*
X19637Y24312D3*
Y24981D3*
X8574Y13937D3*
Y14606D3*
D126*
X16699Y19687D3*
X16030D3*
D122*
X19637Y20187D3*
Y20856D3*
X21824Y20875D3*
Y20205D3*
X16324Y12812D3*
Y13481D3*
X6574Y13563D3*
Y14232D3*
D126*
X20387Y20875D3*
X21056D3*
D122*
X17012Y11875D3*
Y12544D3*
D126*
X20887Y22937D3*
X20217D3*
X20387Y21749D3*
X21056D3*
X15199Y21187D3*
X15868D3*
D122*
X17449Y20437D3*
Y19768D3*
X21824Y22437D3*
Y21768D3*
X19637Y22437D3*
Y21768D3*
D126*
X12260Y11812D3*
X12929D3*
D122*
X6949Y22062D3*
Y21393D3*
Y23500D3*
Y22830D3*
Y25000D3*
Y24330D3*
Y26437D3*
Y25768D3*
D17*
X12574Y26187D3*
D60*
D3*
D17*
X10012D3*
D60*
D3*
D17*
X22951Y16876D3*
D60*
D3*
D17*
X16951Y16626D3*
D60*
D3*
D17*
X14449Y27062D3*
D60*
D3*
D17*
X15637Y19125D3*
D60*
D3*
D89*
X11824Y29437D3*
D87*
X12824D3*
X13824D3*
Y32437D3*
X12824D3*
X11824D3*
D89*
X7574Y29437D3*
D87*
X8574D3*
X9574D3*
Y32437D3*
X8574D3*
X7574D3*
D85*
X19324Y8187D3*
Y9093D3*
Y9998D3*
D83*
X17041Y9093D3*
D81*
X22387Y15125D3*
Y15873D3*
X21481Y15499D3*
D79*
X17951Y14251D3*
X18325D3*
X18699D3*
Y15314D3*
X17951D3*
D89*
X15260Y12437D3*
D87*
Y13437D3*
Y14437D3*
Y15437D3*
Y16437D3*
Y17437D3*
D77*
X18699Y24437D3*
X18199D3*
X17699D3*
X17199D3*
X16699D3*
X16199D3*
X15699D3*
Y22311D3*
X16199D3*
X16699D3*
X17199D3*
X17699D3*
X18199D3*
X18699D3*
D75*
X9822Y17320D3*
X10019D3*
X10216D3*
X10413D3*
X10610D3*
X10806D3*
X11003D3*
X11200D3*
X11397D3*
X11594D3*
X11791D3*
X11988D3*
X12184D3*
X12381D3*
X12578D3*
X12775D3*
D73*
X13543Y18088D3*
Y18284D3*
Y18481D3*
Y18678D3*
Y18875D3*
Y19072D3*
Y19269D3*
Y19466D3*
Y19662D3*
Y19859D3*
Y20056D3*
Y20253D3*
Y20450D3*
Y20647D3*
Y20844D3*
Y21040D3*
D75*
X12775Y21808D3*
X12578D3*
X12381D3*
X12184D3*
X11988D3*
X11791D3*
X11594D3*
X11397D3*
X11200D3*
X11003D3*
X10806D3*
X10610D3*
X10413D3*
X10216D3*
X10019D3*
X9822D3*
D73*
X9054Y21040D3*
Y20844D3*
Y20647D3*
Y20450D3*
Y20253D3*
Y20056D3*
Y19859D3*
Y19662D3*
Y19466D3*
Y19269D3*
Y19072D3*
Y18875D3*
Y18678D3*
Y18481D3*
Y18284D3*
Y18088D3*
D71*
X9699Y12937D3*
Y13937D3*
Y14937D3*
D77*
X12572D3*
X12072D3*
X11572D3*
X11072D3*
Y12811D3*
X11572D3*
X12072D3*
X12572D3*
D69*
X12199Y23937D3*
X10578D3*
M02*
