G04 DipTrace 2.4.0.2*
%INTemperatureController.GBS*%
%MOIN*%
%ADD59C,0.1181*%
%ADD65C,0.063*%
%ADD71C,0.0827*%
%ADD87C,0.063*%
%ADD89R,0.063X0.063*%
%ADD105C,0.1024*%
%ADD107C,0.1614*%
%ADD110C,0.0709*%
%ADD111R,0.0709X0.0709*%
%ADD112C,0.1417*%
%ADD114C,0.122*%
%ADD118C,0.0827*%
%ADD120R,0.0827X0.0827*%
%FSLAX44Y44*%
G04*
G70*
G90*
G75*
G01*
%LNBotMask*%
%LPD*%
D120*
X14824Y38812D3*
D118*
X13883D3*
X12942D3*
D59*
X13883Y34875D3*
D120*
X9699Y38812D3*
D118*
X8758D3*
X7817D3*
D59*
X8758Y34874D3*
D114*
X17262Y37000D3*
X18207Y35881D3*
X17262Y32062D3*
X18207Y30944D3*
D59*
X22107Y41811D3*
X5445D3*
X22138Y5433D3*
X5445D3*
X22107Y28687D3*
X5445Y28625D3*
D112*
X18699Y40937D3*
X15392D3*
X21699Y31250D3*
Y34557D3*
X11949Y40937D3*
X8642D3*
D111*
X22824Y26562D3*
D110*
Y25562D3*
Y24562D3*
D111*
X5447Y19312D3*
D110*
Y18312D3*
Y17312D3*
Y16312D3*
Y15312D3*
Y14312D3*
Y13312D3*
Y12312D3*
D111*
X22824Y21874D3*
D110*
Y20874D3*
Y19874D3*
D111*
X5885Y26187D3*
D110*
X4885D3*
D65*
X10074Y8562D3*
X11074D3*
X12074D3*
X13074D3*
X10574Y9562D3*
X11574D3*
X12574D3*
X13574D3*
D107*
X9572Y6062D3*
X14072D3*
D105*
X8722Y4861D3*
X14923D3*
D111*
X5887Y24562D3*
D110*
X4887D3*
D111*
X5887Y22937D3*
D110*
X4887D3*
D111*
X5887Y21312D3*
D110*
X4887D3*
D118*
X21699Y38937D3*
X20990Y36969D3*
D89*
X11824Y29437D3*
D87*
X12824D3*
X13824D3*
Y32437D3*
X12824D3*
X11824D3*
D89*
X7574Y29437D3*
D87*
X8574D3*
X9574D3*
Y32437D3*
X8574D3*
X7574D3*
D89*
X15260Y12437D3*
D87*
Y13437D3*
Y14437D3*
Y15437D3*
Y16437D3*
Y17437D3*
D71*
X9699Y12937D3*
Y13937D3*
Y14937D3*
M02*
